<svg width="18" height="18" viewBox="0 0 18 18" fill="none" xmlns="http://www.w3.org/2000/svg">
<mask id="path-1-inside-1_4720_298" fill="white">
<path fill-rule="evenodd" clip-rule="evenodd" d="M11.8203 18H11.7063C7.8154 18 5.94004 16.4664 5.61579 13.0312C5.58074 12.6719 5.84364 12.3476 6.2117 12.3126C6.56224 12.2775 6.89525 12.5492 6.9303 12.9085C7.18444 15.6602 8.48142 16.6855 11.7151 16.6855H11.829C15.3957 16.6855 16.6577 15.4236 16.6577 11.8569V6.14313C16.6577 2.57643 15.3957 1.31451 11.829 1.31451H11.7151C8.46389 1.31451 7.16691 2.35735 6.9303 5.16163C6.88648 5.52093 6.57976 5.79259 6.2117 5.75754C5.84364 5.73125 5.58074 5.40701 5.60703 5.04771C5.90498 1.55988 7.78911 0 11.7063 0H11.8203C16.1231 0 17.9634 1.84031 17.9634 6.14313V11.8569C17.9634 16.1597 16.1231 18 11.8203 18ZM2.24106 9.65725H1.63625C1.27695 9.65725 0.978998 9.35929 0.978998 9C0.978998 8.6407 1.27695 8.34274 1.63625 8.34274H2.2414L1.58397 9.00017L2.24106 9.65725ZM2.24106 9.65725L4.05525 11.4714C4.30939 11.7256 4.30939 12.1462 4.05525 12.4004C3.93256 12.5318 3.75729 12.5932 3.59079 12.5932C3.42428 12.5932 3.25778 12.5318 3.12633 12.4004L0.190598 9.46463C-0.0635395 9.21049 -0.0635395 8.78985 0.190598 8.53571L3.12633 5.59997C3.38047 5.34583 3.80111 5.34583 4.05525 5.59997C4.30939 5.8541 4.30939 6.27475 4.05525 6.52888L2.2414 8.34274L11.6089 8.34274C11.9682 8.34274 12.2662 8.6407 12.2662 9C12.2662 9.35929 11.9682 9.65725 11.6089 9.65725L2.24106 9.65725Z"/>
</mask>
<path fill-rule="evenodd" clip-rule="evenodd" d="M11.8203 18H11.7063C7.8154 18 5.94004 16.4664 5.61579 13.0312C5.58074 12.6719 5.84364 12.3476 6.2117 12.3126C6.56224 12.2775 6.89525 12.5492 6.9303 12.9085C7.18444 15.6602 8.48142 16.6855 11.7151 16.6855H11.829C15.3957 16.6855 16.6577 15.4236 16.6577 11.8569V6.14313C16.6577 2.57643 15.3957 1.31451 11.829 1.31451H11.7151C8.46389 1.31451 7.16691 2.35735 6.9303 5.16163C6.88648 5.52093 6.57976 5.79259 6.2117 5.75754C5.84364 5.73125 5.58074 5.40701 5.60703 5.04771C5.90498 1.55988 7.78911 0 11.7063 0H11.8203C16.1231 0 17.9634 1.84031 17.9634 6.14313V11.8569C17.9634 16.1597 16.1231 18 11.8203 18ZM2.24106 9.65725H1.63625C1.27695 9.65725 0.978998 9.35929 0.978998 9C0.978998 8.6407 1.27695 8.34274 1.63625 8.34274H2.2414L1.58397 9.00017L2.24106 9.65725ZM2.24106 9.65725L4.05525 11.4714C4.30939 11.7256 4.30939 12.1462 4.05525 12.4004C3.93256 12.5318 3.75729 12.5932 3.59079 12.5932C3.42428 12.5932 3.25778 12.5318 3.12633 12.4004L0.190598 9.46463C-0.0635395 9.21049 -0.0635395 8.78985 0.190598 8.53571L3.12633 5.59997C3.38047 5.34583 3.80111 5.34583 4.05525 5.59997C4.30939 5.8541 4.30939 6.27475 4.05525 6.52888L2.2414 8.34274L11.6089 8.34274C11.9682 8.34274 12.2662 8.6407 12.2662 9C12.2662 9.35929 11.9682 9.65725 11.6089 9.65725L2.24106 9.65725Z" fill="#32C7A0"/>
<path d="M5.61579 13.0312L6.61137 12.9372L6.61107 12.9341L5.61579 13.0312ZM6.2117 12.3126L6.30651 13.3081L6.31121 13.3076L6.2117 12.3126ZM6.9303 12.9085L7.92607 12.8165L7.92557 12.8114L6.9303 12.9085ZM6.9303 5.16163L7.92295 5.28268L7.92519 5.26423L7.92676 5.24571L6.9303 5.16163ZM6.2117 5.75754L6.30651 4.76204L6.29474 4.76092L6.28295 4.76008L6.2117 5.75754ZM5.60703 5.04771L4.61058 4.96258L4.6097 4.97473L5.60703 5.04771ZM1.58397 9.00017L0.876867 8.29306L0.169762 9.00017L0.876867 9.70727L1.58397 9.00017ZM4.05525 12.4004L3.34814 11.6933L3.33595 11.7054L3.32419 11.718L4.05525 12.4004ZM3.12633 12.4004L2.41922 13.1075L3.12633 12.4004ZM0.190598 9.46463L-0.51651 10.1717V10.1717L0.190598 9.46463ZM0.190598 8.53571L-0.51651 7.8286L0.190598 8.53571ZM3.12633 5.59997L2.41922 4.89286L2.41922 4.89286L3.12633 5.59997ZM4.05525 6.52888L3.34814 5.82178L3.34814 5.82178L4.05525 6.52888ZM11.7063 19H11.8203V17H11.7063V19ZM4.62022 13.1251C4.79764 15.0048 5.41913 16.5401 6.6912 17.5785C7.94109 18.5987 9.65186 19 11.7063 19V17C9.86988 17 8.6975 16.6345 7.95591 16.0291C7.23651 15.4419 6.75819 14.4927 6.61137 12.9372L4.62022 13.1251ZM6.11689 11.3171C5.19744 11.4046 4.53182 12.2191 4.62052 13.1283L6.61107 12.9341C6.62966 13.1246 6.48984 13.2906 6.30651 13.3081L6.11689 11.3171ZM7.92557 12.8114C7.83733 11.9068 7.01858 11.2269 6.1122 11.3175L6.31121 13.3076C6.1972 13.319 6.10779 13.2793 6.05292 13.234C5.99728 13.1881 5.94526 13.1105 5.93502 13.0056L7.92557 12.8114ZM11.7151 15.6855C10.1639 15.6855 9.31503 15.4309 8.82509 15.044C8.37222 14.6865 8.04134 14.0647 7.92606 12.8165L5.93454 13.0004C6.07339 14.5039 6.51807 15.7707 7.58565 16.6137C8.61616 17.4274 10.0326 17.6855 11.7151 17.6855V15.6855ZM11.829 15.6855H11.7151V17.6855H11.829V15.6855ZM15.6577 11.8569C15.6577 13.571 15.3438 14.4315 14.8737 14.9016C14.4037 15.3717 13.5431 15.6855 11.829 15.6855V17.6855C13.6816 17.6855 15.2354 17.3684 16.288 16.3158C17.3405 15.2632 17.6577 13.7095 17.6577 11.8569H15.6577ZM15.6577 6.14313L15.6577 11.8569H17.6577V6.14313H15.6577ZM11.829 2.31451C13.5431 2.31451 14.4037 2.62835 14.8737 3.09841C15.3438 3.56848 15.6577 4.42905 15.6577 6.14313H17.6577C17.6577 4.29051 17.3405 2.73677 16.288 1.6842C15.2354 0.631626 13.6816 0.314507 11.829 0.314507V2.31451ZM11.7151 2.31451H11.829V0.314507H11.7151V2.31451ZM7.92676 5.24571C8.03463 3.96729 8.3654 3.33037 8.81884 2.9658C9.30696 2.57333 10.156 2.31451 11.7151 2.31451V0.314507C10.023 0.314507 8.59794 0.577108 7.56561 1.40713C6.4986 2.26505 6.06258 3.55169 5.93384 5.07755L7.92676 5.24571ZM6.11689 6.75304C7.07026 6.84383 7.81922 6.1332 7.92295 5.28268L5.93765 5.04058C5.94615 4.97089 5.98182 4.89894 6.04665 4.84408C6.11522 4.78606 6.21111 4.75296 6.30651 4.76204L6.11689 6.75304ZM4.6097 4.97473C4.54516 5.85677 5.19251 6.68729 6.14046 6.755L6.28295 4.76008C6.49477 4.77521 6.61632 4.95724 6.60436 5.12068L4.6097 4.97473ZM11.7063 -1C9.6375 -1 7.91505 -0.591665 6.66185 0.445553C5.38739 1.50038 4.77338 3.0578 4.61066 4.96259L6.6034 5.13282C6.73863 3.54979 7.21566 2.58336 7.93706 1.98628C8.67973 1.37161 9.85796 1 11.7063 1L11.7063 -1ZM11.8203 -1H11.7063L11.7063 1H11.8203L11.8203 -1ZM18.9634 6.14313C18.9634 3.87667 18.4826 2.02098 17.2125 0.7509C15.9424 -0.519175 14.0867 -1 11.8203 -1L11.8203 1C13.8566 1 15.0725 1.43933 15.7983 2.16511C16.5241 2.8909 16.9634 4.10677 16.9634 6.14313H18.9634ZM18.9634 11.8569V6.14313H16.9634V11.8569H18.9634ZM11.8203 19C14.0867 19 15.9424 18.5192 17.2125 17.2491C18.4826 15.979 18.9634 14.1233 18.9634 11.8569H16.9634C16.9634 13.8932 16.5241 15.1091 15.7983 15.8349C15.0725 16.5607 13.8566 17 11.8203 17V19ZM1.63625 10.6572H2.24106V8.65725H1.63625V10.6572ZM-0.0210018 9C-0.0210018 9.91158 0.724669 10.6572 1.63625 10.6572V8.65725C1.82924 8.65725 1.979 8.80701 1.979 9H-0.0210018ZM1.63625 7.34274C0.724669 7.34274 -0.0210018 8.08841 -0.0210018 9H1.979C1.979 9.19298 1.82924 9.34274 1.63625 9.34274V7.34274ZM2.2414 7.34274H1.63625V9.34274H2.2414V7.34274ZM1.53429 7.63564L0.876867 8.29306L2.29108 9.70727L2.9485 9.04985L1.53429 7.63564ZM0.876867 9.70727L1.53395 10.3644L2.94816 8.95014L2.29108 8.29306L0.876867 9.70727ZM1.53395 10.3644L3.34814 12.1785L4.76235 10.7643L2.94816 8.95014L1.53395 10.3644ZM3.34814 12.1785C3.21175 12.0422 3.21175 11.8296 3.34814 11.6933L4.76235 13.1075C5.40702 12.4628 5.40702 11.409 4.76235 10.7643L3.34814 12.1785ZM3.32419 11.718C3.42101 11.6143 3.52802 11.5932 3.59079 11.5932V13.5932C3.98657 13.5932 4.44411 13.4493 4.7863 13.0827L3.32419 11.718ZM3.59079 11.5932C3.67519 11.5932 3.76746 11.6273 3.83344 11.6933L2.41922 13.1075C2.7481 13.4363 3.17338 13.5932 3.59079 13.5932V11.5932ZM3.83344 11.6933L0.897705 8.75752L-0.51651 10.1717L2.41922 13.1075L3.83344 11.6933ZM0.897705 8.75752C1.03409 8.89391 1.03409 9.10643 0.897705 9.24281L-0.51651 7.8286C-1.16117 8.47326 -1.16117 9.52707 -0.51651 10.1717L0.897705 8.75752ZM0.897705 9.24281L3.83344 6.30707L2.41922 4.89286L-0.51651 7.8286L0.897705 9.24281ZM3.83344 6.30707C3.69705 6.44346 3.48453 6.44346 3.34814 6.30707L4.76235 4.89286C4.11769 4.2482 3.06388 4.2482 2.41922 4.89286L3.83344 6.30707ZM3.34814 6.30707C3.21175 6.17069 3.21175 5.95816 3.34814 5.82178L4.76235 7.23599C5.40702 6.59133 5.40702 5.53752 4.76235 4.89286L3.34814 6.30707ZM3.34814 5.82178L1.53429 7.63564L2.94851 9.04985L4.76236 7.23599L3.34814 5.82178ZM11.6089 7.34274L2.2414 7.34274V9.34274L11.6089 9.34274V7.34274ZM13.2662 9C13.2662 8.08841 12.5205 7.34274 11.6089 7.34274V9.34274C11.416 9.34274 11.2662 9.19298 11.2662 9H13.2662ZM11.6089 10.6572C12.5205 10.6572 13.2662 9.91158 13.2662 9H11.2662C11.2662 8.80701 11.416 8.65725 11.6089 8.65725V10.6572ZM2.24106 10.6572L11.6089 10.6572V8.65725L2.24106 8.65725V10.6572Z" fill="#38DEB3" mask="url(#path-1-inside-1_4720_298)"/>
</svg>
