<svg width="18" height="18" viewBox="0 0 18 18" fill="none" xmlns="http://www.w3.org/2000/svg">
<mask id="path-1-inside-1_4720_1311" fill="white">
<path fill-rule="evenodd" clip-rule="evenodd" d="M11.8203 18H11.7063C7.81539 18 5.94002 16.4664 5.61578 13.0312C5.58072 12.6719 5.84363 12.3476 6.21169 12.3126C6.56222 12.2775 6.89523 12.5492 6.93028 12.9085C7.18442 15.6602 8.4814 16.6855 11.7151 16.6855H11.829C15.3957 16.6855 16.6576 15.4236 16.6576 11.8569V6.14313C16.6576 2.57643 15.3957 1.31451 11.829 1.31451H11.7151C8.46387 1.31451 7.16689 2.35735 6.93028 5.16163C6.88647 5.52093 6.57975 5.79259 6.21169 5.75754C5.84363 5.73125 5.58072 5.40701 5.60701 5.04771C5.90497 1.55988 7.7891 0 11.7063 0H11.8203C16.1231 0 17.9634 1.84031 17.9634 6.14313V11.8569C17.9634 16.1597 16.1231 18 11.8203 18ZM2.24104 9.65725H1.63624C1.27694 9.65725 0.978983 9.35929 0.978983 9C0.978983 8.6407 1.27694 8.34274 1.63624 8.34274H2.24138L1.58396 9.00017L2.24104 9.65725ZM2.24104 9.65725L4.05523 11.4714C4.30937 11.7256 4.30937 12.1462 4.05523 12.4004C3.93255 12.5318 3.75728 12.5932 3.59077 12.5932C3.42427 12.5932 3.25776 12.5318 3.12631 12.4004L0.190582 9.46463C-0.0635548 9.21049 -0.0635548 8.78985 0.190582 8.53571L3.12631 5.59997C3.38045 5.34583 3.8011 5.34583 4.05523 5.59997C4.30937 5.8541 4.30937 6.27475 4.05523 6.52888L2.24138 8.34274L11.6089 8.34274C11.9682 8.34274 12.2662 8.6407 12.2662 9C12.2662 9.35929 11.9682 9.65725 11.6089 9.65725L2.24104 9.65725Z"/>
</mask>
<path fill-rule="evenodd" clip-rule="evenodd" d="M11.8203 18H11.7063C7.81539 18 5.94002 16.4664 5.61578 13.0312C5.58072 12.6719 5.84363 12.3476 6.21169 12.3126C6.56222 12.2775 6.89523 12.5492 6.93028 12.9085C7.18442 15.6602 8.4814 16.6855 11.7151 16.6855H11.829C15.3957 16.6855 16.6576 15.4236 16.6576 11.8569V6.14313C16.6576 2.57643 15.3957 1.31451 11.829 1.31451H11.7151C8.46387 1.31451 7.16689 2.35735 6.93028 5.16163C6.88647 5.52093 6.57975 5.79259 6.21169 5.75754C5.84363 5.73125 5.58072 5.40701 5.60701 5.04771C5.90497 1.55988 7.7891 0 11.7063 0H11.8203C16.1231 0 17.9634 1.84031 17.9634 6.14313V11.8569C17.9634 16.1597 16.1231 18 11.8203 18ZM2.24104 9.65725H1.63624C1.27694 9.65725 0.978983 9.35929 0.978983 9C0.978983 8.6407 1.27694 8.34274 1.63624 8.34274H2.24138L1.58396 9.00017L2.24104 9.65725ZM2.24104 9.65725L4.05523 11.4714C4.30937 11.7256 4.30937 12.1462 4.05523 12.4004C3.93255 12.5318 3.75728 12.5932 3.59077 12.5932C3.42427 12.5932 3.25776 12.5318 3.12631 12.4004L0.190582 9.46463C-0.0635548 9.21049 -0.0635548 8.78985 0.190582 8.53571L3.12631 5.59997C3.38045 5.34583 3.8011 5.34583 4.05523 5.59997C4.30937 5.8541 4.30937 6.27475 4.05523 6.52888L2.24138 8.34274L11.6089 8.34274C11.9682 8.34274 12.2662 8.6407 12.2662 9C12.2662 9.35929 11.9682 9.65725 11.6089 9.65725L2.24104 9.65725Z" fill="#33CAA3"/>
<path d="M5.61578 13.0312L6.61136 12.9372L6.61105 12.9341L5.61578 13.0312ZM6.21169 12.3126L6.3065 13.3081L6.31119 13.3076L6.21169 12.3126ZM6.93028 12.9085L7.92606 12.8165L7.92556 12.8114L6.93028 12.9085ZM6.93028 5.16163L7.92293 5.28268L7.92518 5.26423L7.92674 5.24571L6.93028 5.16163ZM6.21169 5.75754L6.3065 4.76204L6.29473 4.76092L6.28293 4.76008L6.21169 5.75754ZM5.60701 5.04771L4.61057 4.96258L4.60968 4.97473L5.60701 5.04771ZM1.58396 9.00017L0.876852 8.29306L0.169746 9.00017L0.876852 9.70727L1.58396 9.00017ZM4.05523 12.4004L3.34813 11.6933L3.33594 11.7054L3.32418 11.718L4.05523 12.4004ZM3.12631 12.4004L2.41921 13.1075L3.12631 12.4004ZM0.190582 9.46463L-0.516525 10.1717V10.1717L0.190582 9.46463ZM0.190582 8.53571L-0.516525 7.8286L0.190582 8.53571ZM3.12631 5.59997L2.41921 4.89286L2.41921 4.89286L3.12631 5.59997ZM4.05523 6.52888L3.34813 5.82178L3.34812 5.82178L4.05523 6.52888ZM11.7063 19H11.8203V17H11.7063V19ZM4.6202 13.1251C4.79762 15.0048 5.41911 16.5401 6.69118 17.5785C7.94107 18.5987 9.65185 19 11.7063 19V17C9.86987 17 8.69749 16.6345 7.9559 16.0291C7.23649 15.4419 6.75818 14.4927 6.61135 12.9372L4.6202 13.1251ZM6.11688 11.3171C5.19743 11.4046 4.5318 12.2191 4.6205 13.1283L6.61105 12.9341C6.62964 13.1246 6.48982 13.2906 6.3065 13.3081L6.11688 11.3171ZM7.92556 12.8114C7.83731 11.9068 7.01857 11.2269 6.11218 11.3175L6.31119 13.3076C6.19719 13.319 6.10777 13.2793 6.05291 13.234C5.99726 13.1881 5.94525 13.1105 5.93501 13.0056L7.92556 12.8114ZM11.7151 15.6855C10.1639 15.6855 9.31501 15.4309 8.82507 15.044C8.3722 14.6865 8.04133 14.0647 7.92605 12.8165L5.93452 13.0004C6.07338 14.5039 6.51806 15.7707 7.58564 16.6137C8.61614 17.4274 10.0326 17.6855 11.7151 17.6855V15.6855ZM11.829 15.6855H11.7151V17.6855H11.829V15.6855ZM15.6576 11.8569C15.6576 13.571 15.3438 14.4315 14.8737 14.9016C14.4037 15.3717 13.5431 15.6855 11.829 15.6855V17.6855C13.6816 17.6855 15.2354 17.3684 16.2879 16.3158C17.3405 15.2632 17.6576 13.7095 17.6576 11.8569H15.6576ZM15.6576 6.14313L15.6576 11.8569H17.6576V6.14313H15.6576ZM11.829 2.31451C13.5431 2.31451 14.4037 2.62835 14.8737 3.09841C15.3438 3.56848 15.6576 4.42905 15.6576 6.14313H17.6576C17.6576 4.29051 17.3405 2.73677 16.2879 1.6842C15.2354 0.631626 13.6816 0.314507 11.829 0.314507V2.31451ZM11.7151 2.31451H11.829V0.314507H11.7151V2.31451ZM7.92674 5.24571C8.03461 3.96729 8.36539 3.33037 8.81882 2.9658C9.30695 2.57333 10.1559 2.31451 11.7151 2.31451V0.314507C10.023 0.314507 8.59792 0.577108 7.5656 1.40713C6.49859 2.26505 6.06257 3.55169 5.93382 5.07755L7.92674 5.24571ZM6.11688 6.75304C7.07024 6.84383 7.81921 6.1332 7.92293 5.28268L5.93764 5.04058C5.94614 4.97089 5.9818 4.89894 6.04663 4.84408C6.1152 4.78606 6.21109 4.75296 6.3065 4.76204L6.11688 6.75304ZM4.60968 4.97473C4.54514 5.85677 5.1925 6.68729 6.14044 6.755L6.28293 4.76008C6.49475 4.77521 6.61631 4.95724 6.60435 5.12068L4.60968 4.97473ZM11.7063 -1C9.63748 -1 7.91503 -0.591665 6.66184 0.445553C5.38738 1.50038 4.77336 3.0578 4.61064 4.96259L6.60338 5.13282C6.73862 3.54979 7.21565 2.58336 7.93704 1.98628C8.67971 1.37161 9.85794 1 11.7063 1L11.7063 -1ZM11.8203 -1H11.7063L11.7063 1H11.8203L11.8203 -1ZM18.9634 6.14313C18.9634 3.87667 18.4826 2.02098 17.2125 0.7509C15.9424 -0.519175 14.0867 -1 11.8203 -1L11.8203 1C13.8566 1 15.0725 1.43933 15.7983 2.16511C16.524 2.8909 16.9634 4.10677 16.9634 6.14313H18.9634ZM18.9634 11.8569V6.14313H16.9634V11.8569H18.9634ZM11.8203 19C14.0867 19 15.9424 18.5192 17.2125 17.2491C18.4826 15.979 18.9634 14.1233 18.9634 11.8569H16.9634C16.9634 13.8932 16.524 15.1091 15.7983 15.8349C15.0725 16.5607 13.8566 17 11.8203 17V19ZM1.63624 10.6572H2.24104V8.65725H1.63624V10.6572ZM-0.0210171 9C-0.0210171 9.91158 0.724653 10.6572 1.63624 10.6572V8.65725C1.82922 8.65725 1.97898 8.80701 1.97898 9H-0.0210171ZM1.63624 7.34274C0.724653 7.34274 -0.0210171 8.08841 -0.0210171 9H1.97898C1.97898 9.19298 1.82922 9.34274 1.63624 9.34274V7.34274ZM2.24138 7.34274H1.63624V9.34274H2.24138V7.34274ZM1.53427 7.63564L0.876852 8.29306L2.29107 9.70727L2.94849 9.04985L1.53427 7.63564ZM0.876852 9.70727L1.53394 10.3644L2.94815 8.95014L2.29107 8.29306L0.876852 9.70727ZM1.53394 10.3644L3.34813 12.1785L4.76234 10.7643L2.94815 8.95014L1.53394 10.3644ZM3.34813 12.1785C3.21174 12.0422 3.21174 11.8296 3.34813 11.6933L4.76234 13.1075C5.407 12.4628 5.407 11.409 4.76234 10.7643L3.34813 12.1785ZM3.32418 11.718C3.421 11.6143 3.528 11.5932 3.59077 11.5932V13.5932C3.98656 13.5932 4.4441 13.4493 4.78629 13.0827L3.32418 11.718ZM3.59077 11.5932C3.67517 11.5932 3.76745 11.6273 3.83342 11.6933L2.41921 13.1075C2.74808 13.4363 3.17337 13.5932 3.59077 13.5932V11.5932ZM3.83342 11.6933L0.89769 8.75752L-0.516525 10.1717L2.41921 13.1075L3.83342 11.6933ZM0.89769 8.75752C1.03408 8.89391 1.03408 9.10643 0.89769 9.24281L-0.516525 7.8286C-1.16119 8.47326 -1.16119 9.52707 -0.516525 10.1717L0.89769 8.75752ZM0.89769 9.24281L3.83342 6.30707L2.41921 4.89286L-0.516525 7.8286L0.89769 9.24281ZM3.83342 6.30707C3.69703 6.44346 3.48451 6.44346 3.34813 6.30707L4.76234 4.89286C4.11768 4.2482 3.06387 4.2482 2.41921 4.89286L3.83342 6.30707ZM3.34813 6.30707C3.21174 6.17069 3.21174 5.95816 3.34813 5.82178L4.76234 7.23599C5.407 6.59133 5.407 5.53752 4.76234 4.89286L3.34813 6.30707ZM3.34812 5.82178L1.53427 7.63564L2.94849 9.04985L4.76234 7.23599L3.34812 5.82178ZM11.6089 7.34274L2.24138 7.34274V9.34274L11.6089 9.34274V7.34274ZM13.2662 9C13.2662 8.08841 12.5205 7.34274 11.6089 7.34274V9.34274C11.4159 9.34274 11.2662 9.19298 11.2662 9H13.2662ZM11.6089 10.6572C12.5205 10.6572 13.2662 9.91158 13.2662 9H11.2662C11.2662 8.80701 11.4159 8.65725 11.6089 8.65725V10.6572ZM2.24104 10.6572L11.6089 10.6572V8.65725L2.24104 8.65725V10.6572Z" fill="#60E5C2" mask="url(#path-1-inside-1_4720_1311)"/>
</svg>
