<svg width="18" height="18" viewBox="0 0 18 18" fill="none" xmlns="http://www.w3.org/2000/svg">
<mask id="path-1-inside-1_4720_272" fill="white">
<path fill-rule="evenodd" clip-rule="evenodd" d="M6.14313 0H6.25705C10.148 0 12.0234 1.53359 12.3476 4.96884C12.3827 5.32814 12.1198 5.65238 11.7517 5.68743C11.4012 5.72249 11.0681 5.45082 11.0331 5.09153C10.779 2.33982 9.48198 1.31451 6.24829 1.31451H6.13437C2.56767 1.31451 1.30574 2.57643 1.30574 6.14313V11.8569C1.30574 15.4236 2.56767 16.6855 6.13437 16.6855H6.24829C9.4995 16.6855 10.7965 15.6427 11.0331 12.8384C11.0769 12.4791 11.3836 12.2074 11.7517 12.2425C12.1198 12.2687 12.3827 12.593 12.3564 12.9523C12.0584 16.4401 10.1743 18 6.25705 18H6.14313C1.84031 18 0 16.1597 0 11.8569V6.14313C0 1.84031 1.84031 0 6.14313 0ZM15.7223 8.34275H16.3271C16.6864 8.34275 16.9844 8.64071 16.9844 9C16.9844 9.3593 16.6864 9.65726 16.3271 9.65726H15.722L16.3794 8.99983L15.7223 8.34275ZM15.7223 8.34275L13.9081 6.52856C13.654 6.27442 13.654 5.85378 13.9081 5.59964C14.0308 5.46819 14.2061 5.40685 14.3726 5.40685C14.5391 5.40685 14.7056 5.46819 14.8371 5.59964L17.7728 8.53537C18.0269 8.78951 18.0269 9.21015 17.7728 9.46429L14.8371 12.4C14.5829 12.6542 14.1623 12.6542 13.9081 12.4C13.654 12.1459 13.654 11.7253 13.9081 11.4711L15.722 9.65726H6.35445C5.99515 9.65726 5.6972 9.3593 5.6972 9C5.6972 8.64071 5.99515 8.34275 6.35445 8.34275H15.7223Z"/>
</mask>
<path fill-rule="evenodd" clip-rule="evenodd" d="M6.14313 0H6.25705C10.148 0 12.0234 1.53359 12.3476 4.96884C12.3827 5.32814 12.1198 5.65238 11.7517 5.68743C11.4012 5.72249 11.0681 5.45082 11.0331 5.09153C10.779 2.33982 9.48198 1.31451 6.24829 1.31451H6.13437C2.56767 1.31451 1.30574 2.57643 1.30574 6.14313V11.8569C1.30574 15.4236 2.56767 16.6855 6.13437 16.6855H6.24829C9.4995 16.6855 10.7965 15.6427 11.0331 12.8384C11.0769 12.4791 11.3836 12.2074 11.7517 12.2425C12.1198 12.2687 12.3827 12.593 12.3564 12.9523C12.0584 16.4401 10.1743 18 6.25705 18H6.14313C1.84031 18 0 16.1597 0 11.8569V6.14313C0 1.84031 1.84031 0 6.14313 0ZM15.7223 8.34275H16.3271C16.6864 8.34275 16.9844 8.64071 16.9844 9C16.9844 9.3593 16.6864 9.65726 16.3271 9.65726H15.722L16.3794 8.99983L15.7223 8.34275ZM15.7223 8.34275L13.9081 6.52856C13.654 6.27442 13.654 5.85378 13.9081 5.59964C14.0308 5.46819 14.2061 5.40685 14.3726 5.40685C14.5391 5.40685 14.7056 5.46819 14.8371 5.59964L17.7728 8.53537C18.0269 8.78951 18.0269 9.21015 17.7728 9.46429L14.8371 12.4C14.5829 12.6542 14.1623 12.6542 13.9081 12.4C13.654 12.1459 13.654 11.7253 13.9081 11.4711L15.722 9.65726H6.35445C5.99515 9.65726 5.6972 9.3593 5.6972 9C5.6972 8.64071 5.99515 8.34275 6.35445 8.34275H15.7223Z" fill="#32C7A0"/>
<path d="M12.3476 4.96884L11.352 5.06281L11.3523 5.06594L12.3476 4.96884ZM11.7517 5.68743L11.6569 4.69193L11.6522 4.6924L11.7517 5.68743ZM11.0331 5.09153L10.0373 5.18349L10.0378 5.18862L11.0331 5.09153ZM11.0331 12.8384L10.0404 12.7173L10.0382 12.7358L10.0366 12.7543L11.0331 12.8384ZM11.7517 12.2425L11.6569 13.238L11.6687 13.2391L11.6804 13.2399L11.7517 12.2425ZM12.3564 12.9523L13.3528 13.0374L13.3537 13.0253L12.3564 12.9523ZM16.3794 8.99983L17.0865 9.70694L17.7936 8.99983L17.0865 8.29273L16.3794 8.99983ZM13.9081 5.59964L14.6153 6.30675L14.6274 6.29456L14.6392 6.28196L13.9081 5.59964ZM14.8371 5.59964L15.5442 4.89253L14.8371 5.59964ZM17.7728 8.53537L18.4799 7.82827V7.82827L17.7728 8.53537ZM17.7728 9.46429L18.4799 10.1714L17.7728 9.46429ZM14.8371 12.4L15.5442 13.1071L15.5442 13.1071L14.8371 12.4ZM13.9081 11.4711L14.6153 12.1782L14.6153 12.1782L13.9081 11.4711ZM6.25705 -1H6.14313V1H6.25705V-1ZM13.3432 4.87487C13.1658 2.99517 12.5443 1.45989 11.2722 0.421523C10.0223 -0.598738 8.31153 -1 6.25705 -1V1C8.09351 1 9.26589 1.36553 10.0075 1.97088C10.7269 2.55812 11.2052 3.50726 11.352 5.06281L13.3432 4.87487ZM11.8465 6.68293C12.766 6.59536 13.4316 5.78091 13.3429 4.87173L11.3523 5.06594C11.3337 4.87536 11.4736 4.7094 11.6569 4.69194L11.8465 6.68293ZM10.0378 5.18862C10.1261 6.09315 10.9448 6.77311 11.8512 6.68247L11.6522 4.6924C11.7662 4.681 11.8556 4.72073 11.9105 4.76599C11.9661 4.81189 12.0181 4.88948 12.0284 4.99443L10.0378 5.18862ZM6.24829 2.31451C7.79946 2.31451 8.64837 2.56908 9.13831 2.95595C9.59117 3.31355 9.92205 3.93525 10.0373 5.18349L12.0289 4.99956C11.89 3.4961 11.4453 2.22929 10.3777 1.3863C9.34724 0.572589 7.93081 0.314507 6.24829 0.314507V2.31451ZM6.13437 2.31451H6.24829V0.314507H6.13437V2.31451ZM2.30574 6.14313C2.30574 4.42905 2.61959 3.56848 3.08965 3.09841C3.55971 2.62835 4.42029 2.31451 6.13437 2.31451V0.314507C4.28175 0.314507 2.72801 0.631627 1.67544 1.6842C0.622864 2.73677 0.305743 4.29051 0.305743 6.14313H2.30574ZM2.30574 11.8569V6.14313H0.305743V11.8569H2.30574ZM6.13437 15.6855C4.42029 15.6855 3.55971 15.3717 3.08965 14.9016C2.61959 14.4315 2.30574 13.571 2.30574 11.8569H0.305743C0.305743 13.7095 0.622864 15.2632 1.67544 16.3158C2.72801 17.3684 4.28175 17.6855 6.13437 17.6855V15.6855ZM6.24829 15.6855H6.13437V17.6855H6.24829V15.6855ZM10.0366 12.7543C9.92877 14.0327 9.59799 14.6696 9.14456 15.0342C8.65643 15.4267 7.80744 15.6855 6.24829 15.6855V17.6855C7.94035 17.6855 9.36546 17.4229 10.3978 16.5929C11.4648 15.735 11.9008 14.4483 12.0296 12.9224L10.0366 12.7543ZM11.8465 11.247C10.8931 11.1562 10.1442 11.8668 10.0404 12.7173L12.0257 12.9594C12.0172 13.0291 11.9816 13.1011 11.9167 13.1559C11.8482 13.2139 11.7523 13.247 11.6569 13.238L11.8465 11.247ZM13.3537 13.0253C13.4182 12.1432 12.7709 11.3127 11.8229 11.245L11.6804 13.2399C11.4686 13.2248 11.3471 13.0428 11.359 12.8793L13.3537 13.0253ZM6.25705 19C8.3259 19 10.0483 18.5917 11.3015 17.5544C12.576 16.4996 13.19 14.9422 13.3527 13.0374L11.36 12.8672C11.2248 14.4502 10.7477 15.4166 10.0263 16.0137C9.28367 16.6284 8.10544 17 6.25705 17V19ZM6.14313 19H6.25705V17H6.14313V19ZM-1 11.8569C-1 14.1233 -0.519175 15.979 0.7509 17.2491C2.02098 18.5192 3.87667 19 6.14313 19V17C4.10677 17 2.8909 16.5607 2.16511 15.8349C1.43933 15.1091 1 13.8932 1 11.8569H-1ZM-1 6.14313V11.8569H1V6.14313H-1ZM6.14313 -1C3.87667 -1 2.02097 -0.519175 0.7509 0.750901C-0.519175 2.02098 -1 3.87667 -1 6.14313H1C1 4.10677 1.43933 2.8909 2.16511 2.16511C2.8909 1.43933 4.10677 1 6.14313 1V-1ZM16.3271 7.34275H15.7223V9.34275H16.3271V7.34275ZM17.9844 9C17.9844 8.08842 17.2387 7.34275 16.3271 7.34275V9.34275C16.1342 9.34275 15.9844 9.19299 15.9844 9H17.9844ZM16.3271 10.6573C17.2387 10.6573 17.9844 9.91159 17.9844 9H15.9844C15.9844 8.80702 16.1342 8.65726 16.3271 8.65726V10.6573ZM15.722 10.6573H16.3271V8.65726H15.722V10.6573ZM16.4291 10.3644L17.0865 9.70694L15.6723 8.29273L15.0149 8.95015L16.4291 10.3644ZM17.0865 8.29273L16.4294 7.63564L15.0152 9.04986L15.6723 9.70694L17.0865 8.29273ZM16.4294 7.63564L14.6153 5.82145L13.201 7.23567L15.0152 9.04986L16.4294 7.63564ZM14.6153 5.82145C14.7516 5.95784 14.7516 6.17036 14.6153 6.30675L13.201 4.89253C12.5564 5.5372 12.5564 6.591 13.201 7.23567L14.6153 5.82145ZM14.6392 6.28196C14.5424 6.38569 14.4354 6.40685 14.3726 6.40685V4.40685C13.9768 4.40685 13.5193 4.55069 13.1771 4.91732L14.6392 6.28196ZM14.3726 6.40685C14.2882 6.40685 14.1959 6.37272 14.13 6.30675L15.5442 4.89253C15.2153 4.56366 14.79 4.40685 14.3726 4.40685V6.40685ZM14.13 6.30675L17.0657 9.24248L18.4799 7.82827L15.5442 4.89253L14.13 6.30675ZM17.0657 9.24248C16.9293 9.10609 16.9293 8.89357 17.0657 8.75719L18.4799 10.1714C19.1246 9.52674 19.1246 8.47293 18.4799 7.82827L17.0657 9.24248ZM17.0657 8.75719L14.13 11.6929L15.5442 13.1071L18.4799 10.1714L17.0657 8.75719ZM14.13 11.6929C14.2663 11.5565 14.4789 11.5565 14.6153 11.6929L13.201 13.1071C13.8457 13.7518 14.8995 13.7518 15.5442 13.1071L14.13 11.6929ZM14.6153 11.6929C14.7516 11.8293 14.7516 12.0418 14.6153 12.1782L13.201 10.764C12.5564 11.4087 12.5564 12.4625 13.201 13.1071L14.6153 11.6929ZM14.6153 12.1782L16.4291 10.3644L15.0149 8.95015L13.201 10.764L14.6153 12.1782ZM6.35445 10.6573H15.722V8.65726H6.35445V10.6573ZM4.6972 9C4.6972 9.91159 5.44287 10.6573 6.35445 10.6573V8.65726C6.54744 8.65726 6.6972 8.80702 6.6972 9H4.6972ZM6.35445 7.34275C5.44287 7.34275 4.6972 8.08842 4.6972 9H6.6972C6.6972 9.19299 6.54744 9.34275 6.35445 9.34275V7.34275ZM15.7223 7.34275H6.35445V9.34275H15.7223V7.34275Z" fill="#38DEB3" mask="url(#path-1-inside-1_4720_272)"/>
</svg>
