<svg width="24" height="24" viewBox="0 0 24 24" fill="none" xmlns="http://www.w3.org/2000/svg">
<mask id="path-1-inside-1_4720_260" fill="white">
<path fill-rule="evenodd" clip-rule="evenodd" d="M9.51425 13.8882C9.37113 13.8882 9.228 13.8678 9.08488 13.8337C8.66233 13.7179 8.30793 13.4521 8.08302 13.0772L8.00124 12.9409C7.94664 12.8465 7.88929 12.765 7.82992 12.6962C8.21962 12.5962 8.52023 12.4115 8.719 12.1638C8.77814 12.2446 8.83433 12.331 8.88724 12.4229L8.9622 12.5524C9.04399 12.6955 9.1803 12.7978 9.34387 12.8387C9.50743 12.8796 9.671 12.8591 9.80731 12.7773L10.9864 12.0958C11.1636 11.9936 11.2999 11.8232 11.3544 11.6187C11.4089 11.4143 11.3817 11.203 11.2794 11.0258C10.891 10.3579 10.8432 9.66953 11.1431 9.14474C11.443 8.61996 12.0632 8.32008 12.8401 8.32008C13.0784 8.32008 13.2902 8.21636 13.4334 8.05114C13.6995 8.35697 13.9968 8.55184 14.3025 8.63575C13.9724 9.0728 13.4486 9.35602 12.8606 9.35602C12.4585 9.35602 12.1654 9.47188 12.0496 9.66953C11.9337 9.86717 11.9814 10.1807 12.1859 10.5283C12.4244 10.944 12.4926 11.4347 12.3631 11.8981C12.2404 12.3684 11.9405 12.7569 11.518 12.9954L10.3389 13.6701C10.0799 13.8133 9.8005 13.8882 9.51425 13.8882ZM5.46903 13.8573C5.07115 13.9392 4.667 13.871 4.32094 13.6633L3.1487 12.9886C2.73296 12.7501 2.43309 12.3616 2.30359 11.8913C2.18092 11.4211 2.24225 10.9372 2.48079 10.5214C2.67844 10.1739 2.73296 9.86036 2.6171 9.66271C2.50124 9.46507 2.20818 9.3492 1.80607 9.3492C0.811028 9.3492 0 8.53817 0 7.54313V6.34363C0 5.34858 0.811028 4.53756 1.80607 4.53756C2.20818 4.53756 2.50124 4.42169 2.6171 4.22405C2.73296 4.0264 2.68525 3.7129 2.48079 3.36531C2.24225 2.94958 2.18092 2.45887 2.30359 1.99542C2.42627 1.52516 2.72615 1.13669 3.1487 0.89815L4.32776 0.223429C5.09789 -0.233201 6.11338 0.0325987 6.57683 0.816366L6.65861 0.952673C7.06072 1.64784 7.61276 1.64784 8.01487 0.952673L8.08984 0.823181C8.55328 0.0325987 9.56877 -0.233201 10.3457 0.230244L11.518 0.904966C11.9337 1.1435 12.2336 1.53198 12.3631 2.00224C12.4857 2.4725 12.4244 2.95639 12.1859 3.37213C11.9882 3.71971 11.9337 4.03322 12.0496 4.23086C12.1654 4.42851 12.4585 4.54437 12.8606 4.54437C13.8556 4.54437 14.6667 5.3554 14.6667 6.35044V7.54995C14.6667 7.95698 14.531 8.33322 14.3025 8.63575C14.9688 8.81874 15.6747 8.47422 16.1826 7.6022L16.2852 7.42774C16.7236 6.70238 17.6752 6.44528 18.4121 6.87683L20.026 7.78583C20.8749 8.26329 21.1641 9.32839 20.679 10.1639C19.8394 11.6055 20.5297 12.7808 22.2182 12.7808C23.1977 12.7808 23.9907 13.5704 24 14.5253V16.1413C24 17.1054 23.1977 17.8859 22.2276 17.8859C20.5391 17.8859 19.8488 19.0612 20.6977 20.5027C21.1828 21.3291 20.8936 22.4034 20.0447 22.8808L18.4308 23.7898C17.6938 24.2214 16.7423 23.9643 16.3039 23.2389L16.2012 23.0644C15.3523 21.6229 13.9717 21.6229 13.1321 23.0644L13.0295 23.2389C12.591 23.9643 11.6395 24.2214 10.9026 23.7898L9.2887 22.8808C8.43979 22.4034 8.1506 21.3383 8.63569 20.5027C9.4846 19.0612 8.79428 17.8859 7.10579 17.8859C6.12628 17.8859 5.33334 17.0962 5.33334 16.1413V14.5253C5.33334 14.2886 5.3817 14.063 5.46903 13.8573ZM5.46903 13.8573C5.50213 13.8505 5.53518 13.8426 5.56815 13.8337C5.99071 13.7247 6.34511 13.4521 6.57001 13.0704L6.64498 12.9409C6.66918 12.8991 6.69392 12.8598 6.71914 12.823C6.84381 12.7953 6.97323 12.7808 7.10579 12.7808C7.37285 12.7808 7.61494 12.7514 7.82992 12.6962C7.47831 12.289 7.05609 12.3313 6.71914 12.823C6.15537 12.9478 5.6888 13.3395 5.46903 13.8573ZM9.82522 7.48364C9.86271 7.30954 9.88246 7.12886 9.88246 6.9436C9.88246 5.53282 8.73748 4.38784 7.3267 4.38784C5.91592 4.38784 4.77094 5.53282 4.77094 6.9436C4.77094 8.35438 5.91592 9.49936 7.3267 9.49936C7.71041 9.49936 8.07446 9.41466 8.40116 9.26294C8.39404 9.57195 8.46933 9.88657 8.63569 10.1731C9.10694 10.9683 9.10386 11.6842 8.719 12.1638C8.34392 11.6513 7.85048 11.3666 7.32652 11.3666C6.71995 11.3666 6.15427 11.755 5.7658 12.4229L5.69083 12.5524C5.60223 12.6955 5.46592 12.8046 5.30235 12.8455C5.1456 12.8864 4.97522 12.8659 4.83209 12.7773L3.65304 12.1026C3.47584 11.9936 3.34634 11.83 3.29182 11.6255C3.2373 11.4211 3.26456 11.2098 3.36679 11.0326C3.75527 10.3647 3.80297 9.67634 3.5031 9.15156C3.20322 8.62677 2.58302 8.3269 1.80607 8.3269C1.36989 8.3269 1.0223 7.9725 1.0223 7.54313V6.34363C1.0223 5.90744 1.36989 5.55986 1.80607 5.55986C2.58302 5.55986 3.20322 5.25998 3.5031 4.7352C3.80297 4.21042 3.75527 3.52207 3.36679 2.85416C3.26456 2.67696 3.2373 2.46568 3.29182 2.26122C3.34634 2.05676 3.48265 1.88638 3.65985 1.78415L4.83891 1.10261C5.13197 0.932227 5.51363 1.03446 5.68401 1.3207L5.75898 1.45701C6.14746 2.13173 6.71313 2.51339 7.3197 2.51339C7.92627 2.51339 8.49194 2.13173 8.88042 1.45701L8.95539 1.32752C9.13259 1.02764 9.52106 0.925412 9.81413 1.10261L10.9932 1.77733C11.1704 1.88638 11.2999 2.04995 11.3544 2.25441C11.4089 2.45887 11.3817 2.67015 11.2794 2.84734C10.891 3.51525 10.8432 4.2036 11.1431 4.72839C11.443 5.25317 12.0632 5.55304 12.8401 5.55304C13.2763 5.55304 13.6239 5.90744 13.6239 6.33681V7.53632C13.6239 7.73423 13.5524 7.91391 13.4334 8.05114C13.3206 7.92145 13.2133 7.7718 13.1135 7.6022L13.0108 7.42774C12.591 6.70238 11.6395 6.44528 10.9026 6.87683L9.82522 7.48364ZM9.82522 7.48364C9.65483 8.27475 9.11788 8.93011 8.40116 9.26294C8.41479 8.67092 8.73092 8.09955 9.2887 7.78583L9.82522 7.48364ZM7.3267 5.41014C6.48159 5.41014 5.79324 6.09849 5.79324 6.9436C5.79324 7.7887 6.48159 8.47706 7.3267 8.47706C8.1718 8.47706 8.86015 7.7887 8.86015 6.9436C8.86015 6.09849 8.1718 5.41014 7.3267 5.41014ZM11.6302 15.3333C11.6302 16.9769 12.9922 18.3174 14.662 18.3174C16.3318 18.3174 17.6938 16.9769 17.6938 15.3333C17.6938 13.6898 16.3318 12.3492 14.662 12.3492C12.9922 12.3492 11.6302 13.6898 11.6302 15.3333Z"/>
</mask>
<path fill-rule="evenodd" clip-rule="evenodd" d="M9.51425 13.8882C9.37113 13.8882 9.228 13.8678 9.08488 13.8337C8.66233 13.7179 8.30793 13.4521 8.08302 13.0772L8.00124 12.9409C7.94664 12.8465 7.88929 12.765 7.82992 12.6962C8.21962 12.5962 8.52023 12.4115 8.719 12.1638C8.77814 12.2446 8.83433 12.331 8.88724 12.4229L8.9622 12.5524C9.04399 12.6955 9.1803 12.7978 9.34387 12.8387C9.50743 12.8796 9.671 12.8591 9.80731 12.7773L10.9864 12.0958C11.1636 11.9936 11.2999 11.8232 11.3544 11.6187C11.4089 11.4143 11.3817 11.203 11.2794 11.0258C10.891 10.3579 10.8432 9.66953 11.1431 9.14474C11.443 8.61996 12.0632 8.32008 12.8401 8.32008C13.0784 8.32008 13.2902 8.21636 13.4334 8.05114C13.6995 8.35697 13.9968 8.55184 14.3025 8.63575C13.9724 9.0728 13.4486 9.35602 12.8606 9.35602C12.4585 9.35602 12.1654 9.47188 12.0496 9.66953C11.9337 9.86717 11.9814 10.1807 12.1859 10.5283C12.4244 10.944 12.4926 11.4347 12.3631 11.8981C12.2404 12.3684 11.9405 12.7569 11.518 12.9954L10.3389 13.6701C10.0799 13.8133 9.8005 13.8882 9.51425 13.8882ZM5.46903 13.8573C5.07115 13.9392 4.667 13.871 4.32094 13.6633L3.1487 12.9886C2.73296 12.7501 2.43309 12.3616 2.30359 11.8913C2.18092 11.4211 2.24225 10.9372 2.48079 10.5214C2.67844 10.1739 2.73296 9.86036 2.6171 9.66271C2.50124 9.46507 2.20818 9.3492 1.80607 9.3492C0.811028 9.3492 0 8.53817 0 7.54313V6.34363C0 5.34858 0.811028 4.53756 1.80607 4.53756C2.20818 4.53756 2.50124 4.42169 2.6171 4.22405C2.73296 4.0264 2.68525 3.7129 2.48079 3.36531C2.24225 2.94958 2.18092 2.45887 2.30359 1.99542C2.42627 1.52516 2.72615 1.13669 3.1487 0.89815L4.32776 0.223429C5.09789 -0.233201 6.11338 0.0325987 6.57683 0.816366L6.65861 0.952673C7.06072 1.64784 7.61276 1.64784 8.01487 0.952673L8.08984 0.823181C8.55328 0.0325987 9.56877 -0.233201 10.3457 0.230244L11.518 0.904966C11.9337 1.1435 12.2336 1.53198 12.3631 2.00224C12.4857 2.4725 12.4244 2.95639 12.1859 3.37213C11.9882 3.71971 11.9337 4.03322 12.0496 4.23086C12.1654 4.42851 12.4585 4.54437 12.8606 4.54437C13.8556 4.54437 14.6667 5.3554 14.6667 6.35044V7.54995C14.6667 7.95698 14.531 8.33322 14.3025 8.63575C14.9688 8.81874 15.6747 8.47422 16.1826 7.6022L16.2852 7.42774C16.7236 6.70238 17.6752 6.44528 18.4121 6.87683L20.026 7.78583C20.8749 8.26329 21.1641 9.32839 20.679 10.1639C19.8394 11.6055 20.5297 12.7808 22.2182 12.7808C23.1977 12.7808 23.9907 13.5704 24 14.5253V16.1413C24 17.1054 23.1977 17.8859 22.2276 17.8859C20.5391 17.8859 19.8488 19.0612 20.6977 20.5027C21.1828 21.3291 20.8936 22.4034 20.0447 22.8808L18.4308 23.7898C17.6938 24.2214 16.7423 23.9643 16.3039 23.2389L16.2012 23.0644C15.3523 21.6229 13.9717 21.6229 13.1321 23.0644L13.0295 23.2389C12.591 23.9643 11.6395 24.2214 10.9026 23.7898L9.2887 22.8808C8.43979 22.4034 8.1506 21.3383 8.63569 20.5027C9.4846 19.0612 8.79428 17.8859 7.10579 17.8859C6.12628 17.8859 5.33334 17.0962 5.33334 16.1413V14.5253C5.33334 14.2886 5.3817 14.063 5.46903 13.8573ZM5.46903 13.8573C5.50213 13.8505 5.53518 13.8426 5.56815 13.8337C5.99071 13.7247 6.34511 13.4521 6.57001 13.0704L6.64498 12.9409C6.66918 12.8991 6.69392 12.8598 6.71914 12.823C6.84381 12.7953 6.97323 12.7808 7.10579 12.7808C7.37285 12.7808 7.61494 12.7514 7.82992 12.6962C7.47831 12.289 7.05609 12.3313 6.71914 12.823C6.15537 12.9478 5.6888 13.3395 5.46903 13.8573ZM9.82522 7.48364C9.86271 7.30954 9.88246 7.12886 9.88246 6.9436C9.88246 5.53282 8.73748 4.38784 7.3267 4.38784C5.91592 4.38784 4.77094 5.53282 4.77094 6.9436C4.77094 8.35438 5.91592 9.49936 7.3267 9.49936C7.71041 9.49936 8.07446 9.41466 8.40116 9.26294C8.39404 9.57195 8.46933 9.88657 8.63569 10.1731C9.10694 10.9683 9.10386 11.6842 8.719 12.1638C8.34392 11.6513 7.85048 11.3666 7.32652 11.3666C6.71995 11.3666 6.15427 11.755 5.7658 12.4229L5.69083 12.5524C5.60223 12.6955 5.46592 12.8046 5.30235 12.8455C5.1456 12.8864 4.97522 12.8659 4.83209 12.7773L3.65304 12.1026C3.47584 11.9936 3.34634 11.83 3.29182 11.6255C3.2373 11.4211 3.26456 11.2098 3.36679 11.0326C3.75527 10.3647 3.80297 9.67634 3.5031 9.15156C3.20322 8.62677 2.58302 8.3269 1.80607 8.3269C1.36989 8.3269 1.0223 7.9725 1.0223 7.54313V6.34363C1.0223 5.90744 1.36989 5.55986 1.80607 5.55986C2.58302 5.55986 3.20322 5.25998 3.5031 4.7352C3.80297 4.21042 3.75527 3.52207 3.36679 2.85416C3.26456 2.67696 3.2373 2.46568 3.29182 2.26122C3.34634 2.05676 3.48265 1.88638 3.65985 1.78415L4.83891 1.10261C5.13197 0.932227 5.51363 1.03446 5.68401 1.3207L5.75898 1.45701C6.14746 2.13173 6.71313 2.51339 7.3197 2.51339C7.92627 2.51339 8.49194 2.13173 8.88042 1.45701L8.95539 1.32752C9.13259 1.02764 9.52106 0.925412 9.81413 1.10261L10.9932 1.77733C11.1704 1.88638 11.2999 2.04995 11.3544 2.25441C11.4089 2.45887 11.3817 2.67015 11.2794 2.84734C10.891 3.51525 10.8432 4.2036 11.1431 4.72839C11.443 5.25317 12.0632 5.55304 12.8401 5.55304C13.2763 5.55304 13.6239 5.90744 13.6239 6.33681V7.53632C13.6239 7.73423 13.5524 7.91391 13.4334 8.05114C13.3206 7.92145 13.2133 7.7718 13.1135 7.6022L13.0108 7.42774C12.591 6.70238 11.6395 6.44528 10.9026 6.87683L9.82522 7.48364ZM9.82522 7.48364C9.65483 8.27475 9.11788 8.93011 8.40116 9.26294C8.41479 8.67092 8.73092 8.09955 9.2887 7.78583L9.82522 7.48364ZM7.3267 5.41014C6.48159 5.41014 5.79324 6.09849 5.79324 6.9436C5.79324 7.7887 6.48159 8.47706 7.3267 8.47706C8.1718 8.47706 8.86015 7.7887 8.86015 6.9436C8.86015 6.09849 8.1718 5.41014 7.3267 5.41014ZM11.6302 15.3333C11.6302 16.9769 12.9922 18.3174 14.662 18.3174C16.3318 18.3174 17.6938 16.9769 17.6938 15.3333C17.6938 13.6898 16.3318 12.3492 14.662 12.3492C12.9922 12.3492 11.6302 13.6898 11.6302 15.3333Z" fill="#132D46"/>
<path d="M9.08488 13.8337L9.0289 14.0379L9.03588 14.0395L9.08488 13.8337ZM8.08302 13.0772L8.26445 12.9684L8.26445 12.9683L8.08302 13.0772ZM8.00124 12.9409L7.81807 13.0469L7.81981 13.0498L8.00124 12.9409ZM8.88724 12.4229L8.70387 12.5285L8.70413 12.5289L8.88724 12.4229ZM8.9622 12.5524L9.14591 12.4474L9.14531 12.4464L8.9622 12.5524ZM9.80731 12.7773L9.70141 12.5941L9.69845 12.5959L9.80731 12.7773ZM10.9864 12.0958L10.8806 11.9125L10.8805 11.9126L10.9864 12.0958ZM11.3544 11.6187L11.15 11.5642V11.5642L11.3544 11.6187ZM11.2794 11.0258L11.4627 10.9201L11.4623 10.9194L11.2794 11.0258ZM12.1859 10.5283L12.3694 10.423L12.3682 10.421L12.1859 10.5283ZM12.3631 11.8981L12.1593 11.8412L12.1583 11.8447L12.3631 11.8981ZM11.518 12.9954L11.414 12.8112L11.4129 12.8118L11.518 12.9954ZM10.3389 13.6701L10.4413 13.8554L10.444 13.8538L10.3389 13.6701ZM4.32094 13.6633L4.42982 13.4819L4.42649 13.48L4.32094 13.6633ZM3.1487 12.9886L3.25425 12.8052L3.254 12.8051L3.1487 12.9886ZM2.30359 11.8913L2.09885 11.9447L2.0996 11.9475L2.30359 11.8913ZM2.48079 10.5214L2.66431 10.6267L2.66472 10.626L2.48079 10.5214ZM2.48079 3.36531L2.29726 3.47062L2.29842 3.47259L2.48079 3.36531ZM2.30359 1.99542L2.50813 2.04957L2.50832 2.04883L2.30359 1.99542ZM3.1487 0.89815L3.25271 1.0824L3.25379 1.08179L3.1487 0.89815ZM4.32776 0.223429L4.43286 0.407089L4.43567 0.405424L4.32776 0.223429ZM6.57683 0.816366L6.3947 0.924059L6.3954 0.925224L6.57683 0.816366ZM6.65861 0.952673L6.84178 0.84672L6.84004 0.843815L6.65861 0.952673ZM8.01487 0.952673L7.83176 0.846664L7.83172 0.846734L8.01487 0.952673ZM8.08984 0.823181L7.9073 0.716179L7.90673 0.717172L8.08984 0.823181ZM10.3457 0.230244L10.2373 0.411976L10.2402 0.413619L10.3457 0.230244ZM11.518 0.904966L11.4124 1.08834L11.4127 1.08848L11.518 0.904966ZM12.3631 2.00224L12.5678 1.94883L12.5671 1.94607L12.3631 2.00224ZM12.1859 3.37213L12.0024 3.26683L12.0019 3.26754L12.1859 3.37213ZM16.1826 7.6022L16.0002 7.49493L15.9998 7.49571L16.1826 7.6022ZM16.2852 7.42774L16.1041 7.31828L16.1028 7.32047L16.2852 7.42774ZM18.4121 6.87683L18.3052 7.05944L18.3083 7.06118L18.4121 6.87683ZM20.026 7.78583L19.9222 7.97018L19.9223 7.97025L20.026 7.78583ZM20.679 10.1639L20.8618 10.2704L20.862 10.2702L20.679 10.1639ZM24 14.5253H24.2116L24.2116 14.5233L24 14.5253ZM20.6977 20.5027L20.8801 20.3956L20.88 20.3953L20.6977 20.5027ZM20.0447 22.8808L19.9409 22.6964L19.9408 22.6965L20.0447 22.8808ZM18.4308 23.7898L18.3269 23.6054L18.3239 23.6072L18.4308 23.7898ZM16.3039 23.2389L16.1215 23.3462L16.1228 23.3484L16.3039 23.2389ZM16.2012 23.0644L16.3836 22.9572L16.3836 22.9571L16.2012 23.0644ZM13.1321 23.0644L13.3145 23.1717L13.3149 23.1709L13.1321 23.0644ZM13.0295 23.2389L13.2106 23.3484L13.2119 23.3462L13.0295 23.2389ZM10.9026 23.7898L11.0095 23.6072L11.0064 23.6055L10.9026 23.7898ZM9.2887 22.8808L9.39253 22.6965L9.39242 22.6964L9.2887 22.8808ZM8.63569 20.5027L8.45337 20.3953L8.45271 20.3965L8.63569 20.5027ZM5.56815 13.8337L5.51528 13.6288L5.51303 13.6294L5.56815 13.8337ZM6.57001 13.0704L6.7523 13.1778L6.75312 13.1764L6.57001 13.0704ZM6.64498 12.9409L6.82809 13.0469L6.82813 13.0468L6.64498 12.9409ZM8.63569 10.1731L8.45271 10.2794L8.45368 10.281L8.63569 10.1731ZM5.7658 12.4229L5.5829 12.3166L5.58269 12.3169L5.7658 12.4229ZM5.69083 12.5524L5.87081 12.6638L5.87394 12.6584L5.69083 12.5524ZM5.30235 12.8455L5.25103 12.6402L5.24895 12.6408L5.30235 12.8455ZM4.83209 12.7773L4.94353 12.5973L4.93718 12.5937L4.83209 12.7773ZM3.65304 12.1026L3.54209 12.2829L3.54795 12.2862L3.65304 12.1026ZM3.29182 11.6255L3.08738 11.6801L3.29182 11.6255ZM3.36679 11.0326L3.18389 10.9262L3.18352 10.9269L3.36679 11.0326ZM3.36679 2.85416L3.18352 2.95989L3.1839 2.96054L3.36679 2.85416ZM3.29182 2.26122L3.49626 2.31574V2.31574L3.29182 2.26122ZM3.65985 1.78415L3.76558 1.96742L3.76574 1.96733L3.65985 1.78415ZM4.83891 1.10261L4.94479 1.28579L4.94525 1.28552L4.83891 1.10261ZM5.68401 1.3207L5.86951 1.21868L5.86582 1.21248L5.68401 1.3207ZM5.75898 1.45701L5.57356 1.55899L5.57562 1.56258L5.75898 1.45701ZM8.88042 1.45701L8.69731 1.351L8.69706 1.35144L8.88042 1.45701ZM8.95539 1.32752L8.77323 1.21988L8.77228 1.22151L8.95539 1.32752ZM9.81413 1.10261L9.70462 1.28372L9.70904 1.28625L9.81413 1.10261ZM10.9932 1.77733L11.1041 1.59705L11.0983 1.59369L10.9932 1.77733ZM11.3544 2.25441L11.15 2.30892V2.30893L11.3544 2.25441ZM11.2794 2.84734L11.4623 2.95372L11.4627 2.95308L11.2794 2.84734ZM13.1135 7.6022L12.9311 7.70947L12.9311 7.70956L13.1135 7.6022ZM13.0108 7.42774L12.8277 7.53372L12.8285 7.53501L13.0108 7.42774ZM10.9026 6.87683L11.0064 7.06121L11.0095 7.05941L10.9026 6.87683ZM9.2887 7.78583L9.39242 7.97025L9.39253 7.97018L9.2887 7.78583ZM9.03588 14.0395C9.19116 14.0765 9.35105 14.0998 9.51425 14.0998V13.6767C9.39121 13.6767 9.26485 13.6591 9.13389 13.6279L9.03588 14.0395ZM7.90159 13.1861C8.155 13.6084 8.55477 13.9078 9.02893 14.0378L9.14083 13.6297C8.76989 13.528 8.46086 13.2957 8.26445 12.9684L7.90159 13.1861ZM7.81981 13.0498L7.90159 13.1861L8.26445 12.9683L8.18267 12.832L7.81981 13.0498ZM7.66978 12.8345C7.71923 12.8917 7.7691 12.9621 7.81809 13.0468L8.18439 12.835C8.12419 12.7309 8.05934 12.6382 7.99005 12.5579L7.66978 12.8345ZM8.55398 12.0314C8.38926 12.2367 8.13186 12.4003 7.77732 12.4913L7.88251 12.9011C8.30737 12.7921 8.6512 12.5864 8.88402 12.2962L8.55398 12.0314ZM9.0706 12.3174C9.014 12.2191 8.95362 12.1261 8.88974 12.0388L8.54826 12.2888C8.60265 12.3631 8.65465 12.443 8.70387 12.5285L9.0706 12.3174ZM9.14531 12.4464L9.07034 12.3169L8.70413 12.5289L8.7791 12.6584L9.14531 12.4464ZM9.39518 12.6334C9.28613 12.6061 9.19835 12.5392 9.14591 12.4475L8.7785 12.6574C8.88963 12.8519 9.07447 12.9894 9.29255 13.0439L9.39518 12.6334ZM9.69845 12.5959C9.61488 12.646 9.50976 12.6621 9.39518 12.6334L9.29255 13.0439C9.5051 13.0971 9.72713 13.0722 9.91617 12.9588L9.69845 12.5959ZM10.8805 11.9126L9.70143 12.5942L9.91319 12.9605L11.0923 12.279L10.8805 11.9126ZM11.15 11.5642C11.1105 11.7121 11.0112 11.8372 10.8806 11.9125L11.0921 12.2791C11.3159 12.1499 11.4892 11.9343 11.5588 11.6732L11.15 11.5642ZM11.0962 11.1315C11.1697 11.2589 11.1904 11.4124 11.15 11.5642L11.5588 11.6732C11.6274 11.4161 11.5937 11.147 11.4627 10.9201L11.0962 11.1315ZM10.9594 9.03977C10.6118 9.6481 10.6818 10.4191 11.0965 11.1322L11.4623 10.9194C11.1001 10.2966 11.0747 9.69096 11.3268 9.24972L10.9594 9.03977ZM12.8401 8.1085C12.0129 8.1085 11.3082 8.42946 10.9594 9.03977L11.3268 9.24972C11.5778 8.81046 12.1135 8.53166 12.8401 8.53166V8.1085ZM13.2735 7.91258C13.1695 8.03263 13.0155 8.1085 12.8401 8.1085V8.53166C13.1414 8.53166 13.411 8.4001 13.5933 8.18971L13.2735 7.91258ZM14.3585 8.43173C14.1006 8.36091 13.8374 8.1931 13.593 7.91226L13.2738 8.19003C13.5616 8.52084 13.8931 8.74276 14.2464 8.83978L14.3585 8.43173ZM12.8606 9.5676C13.5181 9.5676 14.1031 9.2507 14.4713 8.76328L14.1336 8.50823C13.8416 8.8949 13.3791 9.14444 12.8606 9.14444V9.5676ZM12.2321 9.77653C12.2887 9.67996 12.4789 9.5676 12.8606 9.5676V9.14444C12.4381 9.14444 12.0421 9.2638 11.867 9.56252L12.2321 9.77653ZM12.3682 10.421C12.1737 10.0902 12.1772 9.8702 12.2321 9.77653L11.867 9.56252C11.6902 9.86414 11.7891 10.2711 12.0035 10.6355L12.3682 10.421ZM12.5668 11.9551C12.7122 11.435 12.6351 10.886 12.3694 10.423L12.0024 10.6336C12.2137 11.002 12.273 11.4344 12.1593 11.8412L12.5668 11.9551ZM11.622 13.1797C12.0943 12.913 12.4306 12.4774 12.5678 11.9516L12.1583 11.8447C12.0502 12.2594 11.7867 12.6007 11.414 12.8112L11.622 13.1797ZM10.444 13.8538L11.6231 13.1791L11.4129 12.8118L10.2338 13.4865L10.444 13.8538ZM9.51425 14.0998C9.83831 14.0998 10.1527 14.0148 10.4412 13.8553L10.2366 13.485C10.0071 13.6118 9.76268 13.6767 9.51425 13.6767V14.0998ZM4.21208 13.8448C4.60398 14.0799 5.06226 14.157 5.51169 14.0645L5.42636 13.65C5.08003 13.7213 4.73002 13.662 4.4298 13.4819L4.21208 13.8448ZM3.04315 13.172L4.21539 13.8467L4.42649 13.48L3.25425 12.8052L3.04315 13.172ZM2.0996 11.9475C2.24369 12.4708 2.57854 12.9054 3.0434 13.1721L3.254 12.8051C2.88738 12.5947 2.62248 12.2524 2.50758 11.8352L2.0996 11.9475ZM2.29727 10.4161C2.03041 10.8813 1.96257 11.4223 2.09886 11.9447L2.50832 11.8379C2.39926 11.4199 2.4541 10.9931 2.66431 10.6267L2.29727 10.4161ZM2.43457 9.76971C2.45977 9.8127 2.47652 9.88614 2.45768 10.0019C2.43897 10.1168 2.38719 10.258 2.29687 10.4169L2.66472 10.626C2.77204 10.4373 2.84634 10.248 2.87534 10.0698C2.90421 9.8925 2.89029 9.71036 2.79963 9.55571L2.43457 9.76971ZM1.80607 9.56078C2.1878 9.56078 2.37796 9.67314 2.43457 9.76971L2.79963 9.55571C2.62452 9.25699 2.22855 9.13762 1.80607 9.13762V9.56078ZM-0.211581 7.54313C-0.211581 8.65503 0.694175 9.56078 1.80607 9.56078V9.13762C0.927882 9.13762 0.211581 8.42132 0.211581 7.54313H-0.211581ZM-0.211581 6.34363V7.54313H0.211581V6.34363H-0.211581ZM1.80607 4.32597C0.694176 4.32597 -0.211581 5.23173 -0.211581 6.34363H0.211581C0.211581 5.46544 0.927881 4.74914 1.80607 4.74914V4.32597ZM2.43457 4.11705C2.37796 4.21362 2.1878 4.32597 1.80607 4.32597V4.74914C2.22855 4.74914 2.62452 4.62977 2.79963 4.33105L2.43457 4.11705ZM2.29842 3.47259C2.49298 3.80333 2.48948 4.02338 2.43457 4.11705L2.79963 4.33105C2.97644 4.02943 2.87753 3.62246 2.66316 3.25804L2.29842 3.47259ZM2.09906 1.94128C1.96241 2.45751 2.03048 3.00563 2.29727 3.47061L2.66431 3.26002C2.45403 2.89352 2.39943 2.46022 2.50813 2.04957L2.09906 1.94128ZM3.04469 0.7139C2.57237 0.980528 2.23605 1.41614 2.09886 1.94202L2.50832 2.04883C2.61649 1.63419 2.87992 1.29285 3.25271 1.0824L3.04469 0.7139ZM4.22267 0.0397905L3.04361 0.714512L3.25379 1.08179L4.43284 0.407068L4.22267 0.0397905ZM6.75895 0.708675C6.23729 -0.173548 5.09278 -0.476146 4.21985 0.0414337L4.43567 0.405424C5.103 0.00974491 5.98948 0.238745 6.3947 0.924057L6.75895 0.708675ZM6.84004 0.843815L6.75826 0.707508L6.3954 0.925224L6.47718 1.06153L6.84004 0.843815ZM7.83172 0.846734C7.64582 1.16812 7.46339 1.26247 7.33674 1.26247C7.21009 1.26247 7.02766 1.16812 6.84176 0.846734L6.47546 1.05861C6.69167 1.4324 6.98631 1.68563 7.33674 1.68563C7.68717 1.68563 7.98181 1.4324 8.19802 1.05861L7.83172 0.846734ZM7.90673 0.717172L7.83176 0.846664L8.19798 1.05868L8.27295 0.92919L7.90673 0.717172ZM10.4541 0.0485343C9.57443 -0.476186 8.42908 -0.173906 7.90731 0.71618L8.27237 0.930182C8.67748 0.239103 9.56311 0.00978534 10.2373 0.411954L10.4541 0.0485343ZM11.6235 0.721591L10.4513 0.0468694L10.2402 0.413619L11.4124 1.08834L11.6235 0.721591ZM12.5671 1.94607C12.423 1.42281 12.0881 0.988168 11.6233 0.721447L11.4127 1.08848C11.7793 1.29884 12.0442 1.64115 12.1591 2.05841L12.5671 1.94607ZM12.3694 3.47743C12.6363 3.01232 12.7041 2.47128 12.5678 1.94883L12.1583 2.05565C12.2674 2.47372 12.2126 2.90046 12.0024 3.26683L12.3694 3.47743ZM12.2321 4.12386C12.2069 4.08087 12.1901 4.00743 12.209 3.89172C12.2277 3.7768 12.2795 3.63555 12.3698 3.47671L12.0019 3.26754C11.8946 3.45629 11.8203 3.64558 11.7913 3.82373C11.7625 4.00107 11.7764 4.18321 11.867 4.33786L12.2321 4.12386ZM12.8606 4.33279C12.4789 4.33279 12.2887 4.22043 12.2321 4.12386L11.867 4.33786C12.0421 4.63659 12.4381 4.75595 12.8606 4.75595V4.33279ZM14.8782 6.35044C14.8782 5.23855 13.9725 4.33279 12.8606 4.33279V4.75595C13.7388 4.75595 14.4551 5.47225 14.4551 6.35044H14.8782ZM14.8782 7.54995V6.35044H14.4551V7.54995H14.8782ZM14.4713 8.76328C14.7264 8.42546 14.8782 8.00478 14.8782 7.54995H14.4551C14.4551 7.90918 14.3355 8.24098 14.1336 8.50823L14.4713 8.76328ZM15.9998 7.49571C15.5207 8.31818 14.8997 8.58035 14.3585 8.43173L14.2464 8.83978C15.0379 9.05713 15.8287 8.63026 16.3654 7.70868L15.9998 7.49571ZM16.1028 7.32047L16.0002 7.49493L16.365 7.70947L16.4676 7.53501L16.1028 7.32047ZM18.5191 6.69425C17.6795 6.20264 16.6008 6.49663 16.1041 7.31829L16.4663 7.53719C16.8465 6.90812 17.6708 6.68792 18.3052 7.05941L18.5191 6.69425ZM20.1298 7.60148L18.516 6.69248L18.3083 7.06118L19.9222 7.97018L20.1298 7.60148ZM20.862 10.2702C21.4065 9.33228 21.0812 8.13654 20.1297 7.60142L19.9223 7.97025C20.6687 8.39004 20.9217 9.32449 20.496 10.0577L20.862 10.2702ZM22.2182 12.5692C21.4178 12.5692 20.9101 12.292 20.683 11.9057C20.4565 11.5205 20.465 10.9518 20.8618 10.2704L20.4962 10.0575C20.0534 10.8176 19.9873 11.5573 20.3182 12.1202C20.6484 12.6818 21.3302 12.9923 22.2182 12.9923V12.5692ZM24.2116 14.5233C24.2011 13.4511 23.3126 12.5692 22.2182 12.5692V12.9923C23.0829 12.9923 23.7803 13.6897 23.7884 14.5274L24.2116 14.5233ZM24.2116 16.1413V14.5253H23.7884V16.1413H24.2116ZM22.2276 18.0975C23.3107 18.0975 24.2116 17.2261 24.2116 16.1413H23.7884C23.7884 16.9847 23.0848 17.6743 22.2276 17.6743V18.0975ZM20.88 20.3953C20.4786 19.7138 20.4685 19.1453 20.6937 18.7606C20.9196 18.3747 21.4269 18.0975 22.2276 18.0975V17.6743C21.3397 17.6743 20.6576 17.9847 20.3285 18.5468C19.9987 19.1102 20.0678 19.8501 20.5153 20.6101L20.88 20.3953ZM20.1484 23.0652C21.0996 22.5303 21.4257 21.325 20.8801 20.3956L20.5152 20.6098C20.9398 21.3332 20.6876 22.2765 19.9409 22.6964L20.1484 23.0652ZM18.5346 23.9742L20.1485 23.0652L19.9408 22.6965L18.327 23.6055L18.5346 23.9742ZM16.1228 23.3484C16.6194 24.17 17.6982 24.464 18.5377 23.9724L18.3239 23.6072C17.6895 23.9787 16.8652 23.7585 16.4849 23.1295L16.1228 23.3484ZM16.0189 23.1717L16.1215 23.3462L16.4862 23.1316L16.3836 22.9572L16.0189 23.1717ZM13.3149 23.1709C13.7114 22.4902 14.2073 22.1949 14.6632 22.1949C15.1194 22.1949 15.6178 22.4906 16.0189 23.1718L16.3836 22.9571C15.9358 22.1967 15.3194 21.7717 14.6632 21.7717C14.0066 21.7717 13.3924 22.1971 12.9493 22.958L13.3149 23.1709ZM13.2119 23.3462L13.3145 23.1717L12.9497 22.9572L12.8471 23.1316L13.2119 23.3462ZM10.7956 23.9724C11.6352 24.464 12.7139 24.17 13.2106 23.3484L12.8484 23.1295C12.4682 23.7585 11.6439 23.9787 11.0095 23.6072L10.7956 23.9724ZM9.18486 23.0652L10.7987 23.9742L11.0064 23.6055L9.39253 22.6965L9.18486 23.0652ZM8.45271 20.3965C7.90821 21.3344 8.23354 22.5301 9.18498 23.0652L9.39242 22.6964C8.64604 22.2766 8.39299 21.3421 8.81867 20.6089L8.45271 20.3965ZM7.10579 18.0975C7.90641 18.0975 8.41371 18.3747 8.63968 18.7606C8.86489 19.1453 8.85476 19.7138 8.45338 20.3953L8.81801 20.6101C9.26554 19.8501 9.33469 19.1102 9.00485 18.5468C8.67577 17.9847 7.99366 17.6743 7.10579 17.6743V18.0975ZM5.12176 16.1413C5.12176 17.2155 6.01187 18.0975 7.10579 18.0975V17.6743C6.24069 17.6743 5.54492 16.977 5.54492 16.1413H5.12176ZM5.12176 14.5253V16.1413H5.54492V14.5253H5.12176ZM5.27427 13.7746C5.17611 14.0058 5.12176 14.2595 5.12176 14.5253H5.54492C5.54492 14.3177 5.58729 14.1202 5.66379 13.9399L5.27427 13.7746ZM5.51169 14.0645C5.54899 14.0568 5.58619 14.048 5.62328 14.038L5.51303 13.6294C5.48417 13.6372 5.45527 13.6441 5.42636 13.65L5.51169 14.0645ZM5.62102 14.0386C6.09995 13.915 6.49996 13.606 6.7523 13.1778L6.38773 12.963C6.19025 13.2981 5.88146 13.5343 5.51528 13.6288L5.62102 14.0386ZM6.75312 13.1764L6.82809 13.0469L6.46187 12.8349L6.3869 12.9644L6.75312 13.1764ZM6.82813 13.0468C6.84981 13.0094 6.87169 12.9746 6.89367 12.9426L6.54461 12.7033C6.51615 12.7449 6.48855 12.7888 6.46183 12.835L6.82813 13.0468ZM7.10579 12.5692C6.95769 12.5692 6.81292 12.5855 6.67338 12.6164L6.7649 13.0295C6.87469 13.0052 6.98877 12.9923 7.10579 12.9923V12.5692ZM7.77732 12.4913C7.58171 12.5415 7.35751 12.5692 7.10579 12.5692V12.9923C7.38818 12.9923 7.64817 12.9613 7.88251 12.9011L7.77732 12.4913ZM6.89367 12.9426C7.04365 12.7237 7.18569 12.6446 7.29222 12.6328C7.39223 12.6218 7.52249 12.6639 7.66978 12.8345L7.99005 12.5579C7.78574 12.3213 7.52909 12.181 7.24585 12.2122C6.96913 12.2427 6.73157 12.4305 6.54461 12.7033L6.89367 12.9426ZM6.67338 12.6164C6.043 12.756 5.52082 13.1938 5.27427 13.7746L5.66379 13.9399C5.85677 13.4853 6.26775 13.1397 6.7649 13.0295L6.67338 12.6164ZM10.0321 7.52819C10.0727 7.33954 10.094 7.14393 10.094 6.9436H9.67088C9.67088 7.11379 9.65274 7.27953 9.61838 7.43909L10.0321 7.52819ZM10.094 6.9436C10.094 5.41596 8.85433 4.17626 7.3267 4.17626V4.59942C8.62062 4.59942 9.67088 5.64967 9.67088 6.9436H10.094ZM7.3267 4.17626C5.79906 4.17626 4.55935 5.41596 4.55935 6.9436H4.98252C4.98252 5.64967 6.03277 4.59942 7.3267 4.59942V4.17626ZM4.55935 6.9436C4.55935 8.47123 5.79906 9.71094 7.3267 9.71094V9.28778C6.03277 9.28778 4.98252 8.23753 4.98252 6.9436H4.55935ZM7.3267 9.71094C7.74184 9.71094 8.13625 9.61925 8.49027 9.45484L8.31204 9.07105C8.01267 9.21007 7.67898 9.28778 7.3267 9.28778V9.71094ZM8.18963 9.25807C8.18165 9.60493 8.26624 9.95816 8.45271 10.2793L8.81867 10.0669C8.67242 9.81498 8.60644 9.53896 8.61268 9.26781L8.18963 9.25807ZM8.45368 10.281C8.89877 11.032 8.86374 11.6453 8.55398 12.0314L8.88402 12.2962C9.34397 11.723 9.31512 10.9045 8.81771 10.0652L8.45368 10.281ZM8.88974 12.0388C8.4849 11.4857 7.93337 11.155 7.32652 11.155V11.5781C7.76758 11.5781 8.20295 11.817 8.54826 12.2888L8.88974 12.0388ZM7.32652 11.155C6.62185 11.155 5.99623 11.6059 5.5829 12.3166L5.94869 12.5293C6.31231 11.9041 6.81805 11.5781 7.32652 11.5781V11.155ZM5.58269 12.3169L5.50772 12.4464L5.87394 12.6584L5.94891 12.5289L5.58269 12.3169ZM5.51093 12.4411C5.44753 12.5435 5.35453 12.6143 5.25104 12.6402L5.35367 13.0507C5.57731 12.9948 5.75693 12.8476 5.87073 12.6638L5.51093 12.4411ZM5.24895 12.6408C5.14455 12.668 5.03425 12.6536 4.94346 12.5974L4.72073 12.9572C4.91619 13.0782 5.14665 13.1048 5.35576 13.0502L5.24895 12.6408ZM4.93718 12.5937L3.75812 11.919L3.54795 12.2862L4.72701 12.961L4.93718 12.5937ZM3.76392 11.9224C3.62922 11.8395 3.53577 11.7192 3.49626 11.571L3.08738 11.6801C3.15692 11.9408 3.32245 12.1476 3.54215 12.2828L3.76392 11.9224ZM3.49626 11.571C3.45578 11.4192 3.47656 11.2657 3.55006 11.1383L3.18352 10.9269C3.05256 11.1539 3.01882 11.4229 3.08738 11.6801L3.49626 11.571ZM3.54968 11.139C3.9644 10.426 4.03442 9.65491 3.6868 9.04659L3.31939 9.25653C3.57153 9.69777 3.54613 10.3034 3.1839 10.9262L3.54968 11.139ZM3.6868 9.04659C3.33805 8.43627 2.63329 8.11532 1.80607 8.11532V8.53848C2.53275 8.53848 3.06839 8.81728 3.31939 9.25653L3.6868 9.04659ZM1.80607 8.11532C1.48794 8.11532 1.23389 7.85685 1.23389 7.54313H0.810724C0.810724 8.08815 1.25184 8.53848 1.80607 8.53848V8.11532ZM1.23389 7.54313V6.34363H0.810724V7.54313H1.23389ZM1.23389 6.34363C1.23389 6.0243 1.48674 5.77144 1.80607 5.77144V5.34828C1.25304 5.34828 0.810724 5.79059 0.810724 6.34363H1.23389ZM1.80607 5.77144C2.63329 5.77144 3.33805 5.45049 3.6868 4.84017L3.31939 4.63023C3.06839 5.06948 2.53275 5.34828 1.80607 5.34828V5.77144ZM3.6868 4.84017C4.03442 4.23185 3.9644 3.4608 3.54968 2.74778L3.1839 2.96054C3.54613 3.58333 3.57153 4.18899 3.31939 4.63023L3.6868 4.84017ZM3.55006 2.74843C3.47656 2.62103 3.45578 2.46754 3.49626 2.31574L3.08738 2.20671C3.01882 2.46383 3.05256 2.7329 3.18352 2.95989L3.55006 2.74843ZM3.49626 2.31574C3.53569 2.16786 3.63503 2.04274 3.76558 1.96742L3.55412 1.60088C3.33028 1.73002 3.157 1.94566 3.08738 2.20671L3.49626 2.31574ZM3.76574 1.96733L4.94479 1.28579L4.73302 0.919431L3.55397 1.60097L3.76574 1.96733ZM4.94525 1.28552C5.13742 1.1738 5.39079 1.24175 5.5022 1.42892L5.86582 1.21248C5.63647 0.827163 5.12652 0.690653 4.73256 0.919698L4.94525 1.28552ZM5.49862 1.42267L5.57359 1.55897L5.94437 1.35505L5.86941 1.21874L5.49862 1.42267ZM5.57562 1.56258C5.98972 2.2818 6.61592 2.72497 7.3197 2.72497V2.30181C6.81035 2.30181 6.3052 1.98166 5.94234 1.35144L5.57562 1.56258ZM7.3197 2.72497C8.02349 2.72497 8.64968 2.2818 9.06378 1.56258L8.69706 1.35144C8.33421 1.98166 7.82905 2.30181 7.3197 2.30181V2.72497ZM9.06353 1.56302L9.1385 1.43353L8.77228 1.22151L8.69731 1.351L9.06353 1.56302ZM9.13755 1.43516C9.2569 1.23317 9.51568 1.16941 9.70465 1.28367L9.9236 0.921554C9.52645 0.681418 9.00828 0.822112 8.77323 1.21988L9.13755 1.43516ZM9.70904 1.28625L10.8881 1.96097L11.0983 1.59369L9.91921 0.918973L9.70904 1.28625ZM10.8823 1.95753C11.017 2.04042 11.1104 2.16075 11.15 2.30892L11.5588 2.19989C11.4893 1.93914 11.3238 1.73233 11.1041 1.59714L10.8823 1.95753ZM11.15 2.30893C11.1904 2.46073 11.1697 2.61421 11.0962 2.74161L11.4627 2.95308C11.5937 2.72608 11.6274 2.45701 11.5588 2.19989L11.15 2.30893ZM11.0965 2.74097C10.6818 3.45398 10.6118 4.22503 10.9594 4.83336L11.3268 4.62341C11.0747 4.18217 11.1001 3.57652 11.4623 2.95372L11.0965 2.74097ZM10.9594 4.83336C11.3082 5.44367 12.0129 5.76463 12.8401 5.76463V5.34146C12.1135 5.34146 11.5778 5.06267 11.3268 4.62341L10.9594 4.83336ZM12.8401 5.76463C13.1583 5.76463 13.4123 6.0231 13.4123 6.33681H13.8355C13.8355 5.79179 13.3944 5.34146 12.8401 5.34146V5.76463ZM13.4123 6.33681V7.53632H13.8355V6.33681H13.4123ZM13.4123 7.53632C13.4123 7.6822 13.3599 7.81294 13.2735 7.91258L13.5933 8.18971C13.7448 8.01487 13.8355 7.78627 13.8355 7.53632H13.4123ZM13.593 7.91226C13.4895 7.79325 13.3897 7.65433 13.2958 7.49483L12.9311 7.70956C13.037 7.88928 13.1517 8.04965 13.2738 8.19003L13.593 7.91226ZM13.2958 7.49492L13.1932 7.32047L12.8285 7.53501L12.9311 7.70947L13.2958 7.49492ZM13.194 7.32176C12.7154 6.49488 11.6338 6.20345 10.7956 6.69425L11.0095 7.05941C11.6452 6.68712 12.4667 6.90987 12.8277 7.53372L13.194 7.32176ZM10.7987 6.69248L9.72138 7.29929L9.92905 7.66799L11.0064 7.06118L10.7987 6.69248ZM8.49027 9.45484C9.26603 9.09459 9.84743 8.38537 10.0321 7.52819L9.61838 7.43909C9.46222 8.16412 8.96973 8.76562 8.31204 9.07105L8.49027 9.45484ZM9.18498 7.60142C8.55942 7.95325 8.20491 8.59448 8.18963 9.25807L8.61268 9.26781C8.62467 8.74737 8.90241 8.24584 9.39242 7.97025L9.18498 7.60142ZM9.72138 7.29929L9.18486 7.60148L9.39253 7.97018L9.92905 7.66799L9.72138 7.29929ZM6.00482 6.9436C6.00482 6.21535 6.59844 5.62172 7.3267 5.62172V5.19856C6.36474 5.19856 5.58166 5.98164 5.58166 6.9436H6.00482ZM7.3267 8.26547C6.59844 8.26547 6.00482 7.67185 6.00482 6.9436H5.58166C5.58166 7.90556 6.36474 8.68864 7.3267 8.68864V8.26547ZM8.64857 6.9436C8.64857 7.67185 8.05495 8.26547 7.3267 8.26547V8.68864C8.28866 8.68864 9.07174 7.90556 9.07174 6.9436H8.64857ZM7.3267 5.62172C8.05495 5.62172 8.64857 6.21535 8.64857 6.9436H9.07174C9.07174 5.98164 8.28866 5.19856 7.3267 5.19856V5.62172ZM14.662 18.1058C13.1059 18.1058 11.8418 16.8569 11.8418 15.3333H11.4186C11.4186 17.0969 12.8785 18.529 14.662 18.529V18.1058ZM17.4823 15.3333C17.4823 16.8569 16.2182 18.1058 14.662 18.1058V18.529C16.4455 18.529 17.9054 17.0969 17.9054 15.3333H17.4823ZM14.662 12.5608C16.2182 12.5608 17.4823 13.8098 17.4823 15.3333H17.9054C17.9054 13.5698 16.4455 12.1376 14.662 12.1376V12.5608ZM11.8418 15.3333C11.8418 13.8098 13.1059 12.5608 14.662 12.5608V12.1376C12.8785 12.1376 11.4186 13.5698 11.4186 15.3333H11.8418Z" fill="#132D46" mask="url(#path-1-inside-1_4720_260)"/>
</svg>
