<svg width="19" height="18" viewBox="0 0 19 18" fill="none" xmlns="http://www.w3.org/2000/svg">
<mask id="path-1-inside-1_4438_147" fill="white">
<path fill-rule="evenodd" clip-rule="evenodd" d="M6.66144 0H6.77536C10.6663 0 12.5417 1.53359 12.8659 4.96884C12.901 5.32814 12.6381 5.65238 12.27 5.68743C11.9195 5.72249 11.5865 5.45082 11.5514 5.09153C11.2973 2.33982 10.0003 1.31451 6.7666 1.31451H6.65268C3.08598 1.31451 1.82405 2.57643 1.82405 6.14313V11.8569C1.82405 15.4236 3.08598 16.6855 6.65268 16.6855H6.7666C10.0178 16.6855 11.3148 15.6427 11.5514 12.8384C11.5952 12.4791 11.9019 12.2074 12.27 12.2425C12.6381 12.2687 12.901 12.593 12.8747 12.9523C12.5767 16.4401 10.6926 18 6.77536 18H6.66144C2.35862 18 0.518311 16.1597 0.518311 11.8569V6.14313C0.518311 1.84031 2.35862 0 6.66144 0ZM16.2406 8.34275H16.8455C17.2048 8.34275 17.5027 8.64071 17.5027 9C17.5027 9.3593 17.2048 9.65726 16.8455 9.65726H16.2403L16.8977 8.99983L16.2406 8.34275ZM16.2406 8.34275L14.4265 6.52856C14.1723 6.27442 14.1723 5.85378 14.4265 5.59964C14.5491 5.46819 14.7244 5.40685 14.8909 5.40685C15.0574 5.40685 15.2239 5.46819 15.3554 5.59964L18.2911 8.53537C18.5452 8.78951 18.5452 9.21015 18.2911 9.46429L15.3554 12.4C15.1012 12.6542 14.6806 12.6542 14.4265 12.4C14.1723 12.1459 14.1723 11.7253 14.4265 11.4711L16.2403 9.65726H6.87276C6.51346 9.65726 6.21551 9.3593 6.21551 9C6.21551 8.64071 6.51346 8.34275 6.87276 8.34275H16.2406Z"/>
</mask>
<path fill-rule="evenodd" clip-rule="evenodd" d="M6.66144 0H6.77536C10.6663 0 12.5417 1.53359 12.8659 4.96884C12.901 5.32814 12.6381 5.65238 12.27 5.68743C11.9195 5.72249 11.5865 5.45082 11.5514 5.09153C11.2973 2.33982 10.0003 1.31451 6.7666 1.31451H6.65268C3.08598 1.31451 1.82405 2.57643 1.82405 6.14313V11.8569C1.82405 15.4236 3.08598 16.6855 6.65268 16.6855H6.7666C10.0178 16.6855 11.3148 15.6427 11.5514 12.8384C11.5952 12.4791 11.9019 12.2074 12.27 12.2425C12.6381 12.2687 12.901 12.593 12.8747 12.9523C12.5767 16.4401 10.6926 18 6.77536 18H6.66144C2.35862 18 0.518311 16.1597 0.518311 11.8569V6.14313C0.518311 1.84031 2.35862 0 6.66144 0ZM16.2406 8.34275H16.8455C17.2048 8.34275 17.5027 8.64071 17.5027 9C17.5027 9.3593 17.2048 9.65726 16.8455 9.65726H16.2403L16.8977 8.99983L16.2406 8.34275ZM16.2406 8.34275L14.4265 6.52856C14.1723 6.27442 14.1723 5.85378 14.4265 5.59964C14.5491 5.46819 14.7244 5.40685 14.8909 5.40685C15.0574 5.40685 15.2239 5.46819 15.3554 5.59964L18.2911 8.53537C18.5452 8.78951 18.5452 9.21015 18.2911 9.46429L15.3554 12.4C15.1012 12.6542 14.6806 12.6542 14.4265 12.4C14.1723 12.1459 14.1723 11.7253 14.4265 11.4711L16.2403 9.65726H6.87276C6.51346 9.65726 6.21551 9.3593 6.21551 9C6.21551 8.64071 6.51346 8.34275 6.87276 8.34275H16.2406Z" fill="#132D46"/>
<path d="M12.8659 4.96884L11.8703 5.06281L11.8706 5.06594L12.8659 4.96884ZM12.27 5.68743L12.1752 4.69193L12.1705 4.6924L12.27 5.68743ZM11.5514 5.09153L10.5556 5.18349L10.5561 5.18862L11.5514 5.09153ZM11.5514 12.8384L10.5588 12.7173L10.5565 12.7358L10.5549 12.7543L11.5514 12.8384ZM12.27 12.2425L12.1752 13.238L12.187 13.2391L12.1988 13.2399L12.27 12.2425ZM12.8747 12.9523L13.8711 13.0374L13.872 13.0253L12.8747 12.9523ZM16.8977 8.99983L17.6048 9.70694L18.3119 8.99983L17.6048 8.29273L16.8977 8.99983ZM14.4265 5.59964L15.1336 6.30675L15.1458 6.29456L15.1575 6.28196L14.4265 5.59964ZM15.3554 5.59964L16.0625 4.89253L15.3554 5.59964ZM18.2911 8.53537L18.9982 7.82827V7.82827L18.2911 8.53537ZM18.2911 9.46429L18.9982 10.1714L18.2911 9.46429ZM15.3554 12.4L16.0625 13.1071L16.0625 13.1071L15.3554 12.4ZM14.4265 11.4711L15.1336 12.1782L15.1336 12.1782L14.4265 11.4711ZM6.77536 -1H6.66144V1H6.77536V-1ZM13.8615 4.87487C13.6841 2.99517 13.0626 1.45989 11.7905 0.421523C10.5406 -0.598738 8.82984 -1 6.77536 -1V1C8.61182 1 9.7842 1.36553 10.5258 1.97088C11.2452 2.55812 11.7235 3.50726 11.8703 5.06281L13.8615 4.87487ZM12.3648 6.68293C13.2843 6.59536 13.9499 5.78091 13.8612 4.87173L11.8706 5.06594C11.852 4.87536 11.9919 4.7094 12.1752 4.69194L12.3648 6.68293ZM10.5561 5.18862C10.6444 6.09315 11.4631 6.77311 12.3695 6.68247L12.1705 4.6924C12.2845 4.681 12.3739 4.72073 12.4288 4.76599C12.4844 4.81189 12.5364 4.88948 12.5467 4.99443L10.5561 5.18862ZM6.7666 2.31451C8.31777 2.31451 9.16668 2.56908 9.65662 2.95595C10.1095 3.31355 10.4404 3.93525 10.5556 5.18349L12.5472 4.99956C12.4083 3.4961 11.9636 2.22929 10.8961 1.3863C9.86555 0.572589 8.44912 0.314507 6.7666 0.314507V2.31451ZM6.65268 2.31451H6.7666V0.314507H6.65268V2.31451ZM2.82405 6.14313C2.82405 4.42905 3.1379 3.56848 3.60796 3.09841C4.07802 2.62835 4.9386 2.31451 6.65268 2.31451V0.314507C4.80006 0.314507 3.24632 0.631627 2.19375 1.6842C1.14117 2.73677 0.824054 4.29051 0.824054 6.14313H2.82405ZM2.82405 11.8569V6.14313H0.824054V11.8569H2.82405ZM6.65268 15.6855C4.9386 15.6855 4.07802 15.3717 3.60796 14.9016C3.1379 14.4315 2.82405 13.571 2.82405 11.8569H0.824054C0.824054 13.7095 1.14117 15.2632 2.19375 16.3158C3.24632 17.3684 4.80006 17.6855 6.65268 17.6855V15.6855ZM6.7666 15.6855H6.65268V17.6855H6.7666V15.6855ZM10.5549 12.7543C10.4471 14.0327 10.1163 14.6696 9.66287 15.0342C9.17474 15.4267 8.32575 15.6855 6.7666 15.6855V17.6855C8.45866 17.6855 9.88377 17.4229 10.9161 16.5929C11.9831 15.735 12.4191 14.4483 12.5479 12.9224L10.5549 12.7543ZM12.3648 11.247C11.4114 11.1562 10.6625 11.8668 10.5588 12.7173L12.5441 12.9594C12.5356 13.0291 12.4999 13.1011 12.4351 13.1559C12.3665 13.2139 12.2706 13.247 12.1752 13.238L12.3648 11.247ZM13.872 13.0253C13.9365 12.1432 13.2892 11.3127 12.3412 11.245L12.1988 13.2399C11.9869 13.2248 11.8654 13.0428 11.8773 12.8793L13.872 13.0253ZM6.77536 19C8.84421 19 10.5667 18.5917 11.8198 17.5544C13.0943 16.4996 13.7083 14.9422 13.871 13.0374L11.8783 12.8672C11.7431 14.4502 11.266 15.4166 10.5446 16.0137C9.80198 16.6284 8.62375 17 6.77536 17V19ZM6.66144 19H6.77536V17H6.66144V19ZM-0.481689 11.8569C-0.481689 14.1233 -0.000864267 15.979 1.26921 17.2491C2.53929 18.5192 4.39498 19 6.66144 19V17C4.62508 17 3.40921 16.5607 2.68342 15.8349C1.95764 15.1091 1.51831 13.8932 1.51831 11.8569H-0.481689ZM-0.481689 6.14313V11.8569H1.51831V6.14313H-0.481689ZM6.66144 -1C4.39498 -1 2.53929 -0.519175 1.26921 0.750901C-0.000864208 2.02098 -0.481689 3.87667 -0.481689 6.14313H1.51831C1.51831 4.10677 1.95764 2.8909 2.68342 2.16511C3.40921 1.43933 4.62508 1 6.66144 1V-1ZM16.8455 7.34275H16.2406V9.34275H16.8455V7.34275ZM18.5027 9C18.5027 8.08842 17.757 7.34275 16.8455 7.34275V9.34275C16.6525 9.34275 16.5027 9.19299 16.5027 9H18.5027ZM16.8455 10.6573C17.757 10.6573 18.5027 9.91159 18.5027 9H16.5027C16.5027 8.80702 16.6525 8.65726 16.8455 8.65726V10.6573ZM16.2403 10.6573H16.8455V8.65726H16.2403V10.6573ZM16.9474 10.3644L17.6048 9.70694L16.1906 8.29273L15.5332 8.95015L16.9474 10.3644ZM17.6048 8.29273L16.9478 7.63564L15.5335 9.04986L16.1906 9.70694L17.6048 8.29273ZM16.9478 7.63564L15.1336 5.82145L13.7193 7.23567L15.5335 9.04986L16.9478 7.63564ZM15.1336 5.82145C15.2699 5.95784 15.2699 6.17036 15.1336 6.30675L13.7193 4.89253C13.0747 5.5372 13.0747 6.591 13.7193 7.23567L15.1336 5.82145ZM15.1575 6.28196C15.0607 6.38569 14.9537 6.40685 14.8909 6.40685V4.40685C14.4951 4.40685 14.0376 4.55069 13.6954 4.91732L15.1575 6.28196ZM14.8909 6.40685C14.8065 6.40685 14.7142 6.37272 14.6483 6.30675L16.0625 4.89253C15.7336 4.56366 15.3083 4.40685 14.8909 4.40685V6.40685ZM14.6483 6.30675L17.584 9.24248L18.9982 7.82827L16.0625 4.89253L14.6483 6.30675ZM17.584 9.24248C17.4476 9.10609 17.4476 8.89357 17.584 8.75719L18.9982 10.1714C19.6429 9.52674 19.6429 8.47293 18.9982 7.82827L17.584 9.24248ZM17.584 8.75719L14.6483 11.6929L16.0625 13.1071L18.9982 10.1714L17.584 8.75719ZM14.6483 11.6929C14.7847 11.5565 14.9972 11.5565 15.1336 11.6929L13.7193 13.1071C14.364 13.7518 15.4178 13.7518 16.0625 13.1071L14.6483 11.6929ZM15.1336 11.6929C15.2699 11.8293 15.2699 12.0418 15.1336 12.1782L13.7193 10.764C13.0747 11.4087 13.0747 12.4625 13.7193 13.1071L15.1336 11.6929ZM15.1336 12.1782L16.9474 10.3644L15.5332 8.95015L13.7193 10.764L15.1336 12.1782ZM6.87276 10.6573H16.2403V8.65726H6.87276V10.6573ZM5.21551 9C5.21551 9.91159 5.96118 10.6573 6.87276 10.6573V8.65726C7.06575 8.65726 7.21551 8.80702 7.21551 9H5.21551ZM6.87276 7.34275C5.96118 7.34275 5.21551 8.08842 5.21551 9H7.21551C7.21551 9.19299 7.06575 9.34275 6.87276 9.34275V7.34275ZM16.2406 7.34275H6.87276V9.34275H16.2406V7.34275Z" fill="#132D46" mask="url(#path-1-inside-1_4438_147)"/>
</svg>
