<svg width="24" height="24" viewBox="0 0 24 24" fill="none" xmlns="http://www.w3.org/2000/svg">
<mask id="path-1-inside-1_4438_154" fill="white">
<path fill-rule="evenodd" clip-rule="evenodd" d="M9.51425 13.8882C9.37113 13.8882 9.228 13.8678 9.08488 13.8337C8.66233 13.7178 8.30793 13.452 8.08302 13.0772L8.00124 12.9409C7.94664 12.8465 7.88929 12.7649 7.82992 12.6962C8.21962 12.5962 8.52023 12.4115 8.719 12.1638C8.77814 12.2446 8.83433 12.331 8.88724 12.4229L8.9622 12.5524C9.04399 12.6955 9.1803 12.7977 9.34387 12.8386C9.50743 12.8795 9.671 12.8591 9.80731 12.7773L10.9864 12.0958C11.1636 11.9935 11.2999 11.8232 11.3544 11.6187C11.4089 11.4142 11.3817 11.203 11.2794 11.0258C10.891 10.3578 10.8432 9.66949 11.1431 9.14471C11.443 8.61993 12.0632 8.32005 12.8401 8.32005C13.0784 8.32005 13.2902 8.21633 13.4334 8.05111C13.6995 8.35693 13.9968 8.5518 14.3025 8.63572C13.9724 9.07277 13.4486 9.35599 12.8606 9.35599C12.4585 9.35599 12.1654 9.47185 12.0496 9.66949C11.9337 9.86714 11.9814 10.1806 12.1859 10.5282C12.4244 10.944 12.4926 11.4347 12.3631 11.8981C12.2404 12.3684 11.9405 12.7569 11.518 12.9954L10.3389 13.6701C10.0799 13.8132 9.8005 13.8882 9.51425 13.8882ZM5.46903 13.8572C5.07115 13.9392 4.667 13.8709 4.32094 13.6633L3.1487 12.9886C2.73296 12.75 2.43309 12.3616 2.30359 11.8913C2.18092 11.421 2.24225 10.9372 2.48079 10.5214C2.67844 10.1738 2.73296 9.86032 2.6171 9.66268C2.50124 9.46503 2.20818 9.34917 1.80607 9.34917C0.811028 9.34917 0 8.53814 0 7.5431V6.3436C0 5.34855 0.811028 4.53753 1.80607 4.53753C2.20818 4.53753 2.50124 4.42166 2.6171 4.22402C2.73296 4.02637 2.68525 3.71287 2.48079 3.36528C2.24225 2.94954 2.18092 2.45884 2.30359 1.99539C2.42627 1.52513 2.72615 1.13666 3.1487 0.89812L4.32776 0.223398C5.09789 -0.233231 6.11338 0.0325682 6.57683 0.816335L6.65861 0.952643C7.06072 1.64781 7.61276 1.64781 8.01487 0.952643L8.08984 0.823151C8.55328 0.0325682 9.56877 -0.233231 10.3457 0.230214L11.518 0.904935C11.9337 1.14347 12.2336 1.53195 12.3631 2.00221C12.4857 2.47247 12.4244 2.95636 12.1859 3.3721C11.9882 3.71968 11.9337 4.03319 12.0496 4.23083C12.1654 4.42848 12.4585 4.54434 12.8606 4.54434C13.8556 4.54434 14.6667 5.35537 14.6667 6.35041V7.54992C14.6667 7.95695 14.531 8.33319 14.3025 8.63572C14.9688 8.81871 15.6747 8.47419 16.1826 7.60217L16.2852 7.42771C16.7236 6.70234 17.6752 6.44525 18.4121 6.8768L20.026 7.7858C20.8749 8.26326 21.1641 9.32836 20.679 10.1639C19.8394 11.6055 20.5297 12.7807 22.2182 12.7807C23.1977 12.7807 23.9907 13.5704 24 14.5253V16.1413C24 17.1054 23.1977 17.8858 22.2276 17.8858C20.5391 17.8858 19.8488 19.0611 20.6977 20.5027C21.1828 21.329 20.8936 22.4033 20.0447 22.8808L18.4308 23.7898C17.6938 24.2213 16.7423 23.9642 16.3039 23.2389L16.2012 23.0644C15.3523 21.6229 13.9717 21.6229 13.1321 23.0644L13.0295 23.2389C12.591 23.9642 11.6395 24.2213 10.9026 23.7898L9.2887 22.8808C8.43979 22.4033 8.1506 21.3382 8.63569 20.5027C9.4846 19.0611 8.79428 17.8858 7.10579 17.8858C6.12628 17.8858 5.33334 17.0962 5.33334 16.1413V14.5253C5.33334 14.2886 5.3817 14.063 5.46903 13.8572ZM5.46903 13.8572C5.50213 13.8504 5.53518 13.8426 5.56815 13.8337C5.99071 13.7246 6.34511 13.452 6.57001 13.0704L6.64498 12.9409C6.66918 12.899 6.69392 12.8597 6.71914 12.8229C6.84381 12.7953 6.97323 12.7807 7.10579 12.7807C7.37285 12.7807 7.61494 12.7513 7.82992 12.6962C7.47831 12.289 7.05609 12.3312 6.71914 12.8229C6.15537 12.9478 5.6888 13.3395 5.46903 13.8572ZM9.82522 7.48361C9.86271 7.30951 9.88246 7.12883 9.88246 6.94357C9.88246 5.53279 8.73748 4.38781 7.3267 4.38781C5.91592 4.38781 4.77094 5.53279 4.77094 6.94357C4.77094 8.35435 5.91592 9.49933 7.3267 9.49933C7.71041 9.49933 8.07446 9.41463 8.40116 9.26291C8.39404 9.57191 8.46933 9.88654 8.63569 10.1731C9.10694 10.9682 9.10386 11.6841 8.719 12.1638C8.34392 11.6513 7.85048 11.3665 7.32652 11.3665C6.71995 11.3665 6.15427 11.755 5.7658 12.4229L5.69083 12.5524C5.60223 12.6955 5.46592 12.8046 5.30235 12.8455C5.1456 12.8863 4.97522 12.8659 4.83209 12.7773L3.65304 12.1026C3.47584 11.9935 3.34634 11.83 3.29182 11.6255C3.2373 11.421 3.26456 11.2098 3.36679 11.0326C3.75527 10.3647 3.80297 9.67631 3.5031 9.15153C3.20322 8.62674 2.58302 8.32687 1.80607 8.32687C1.36989 8.32687 1.0223 7.97247 1.0223 7.5431V6.3436C1.0223 5.90741 1.36989 5.55983 1.80607 5.55983C2.58302 5.55983 3.20322 5.25995 3.5031 4.73517C3.80297 4.21039 3.75527 3.52204 3.36679 2.85413C3.26456 2.67693 3.2373 2.46565 3.29182 2.26119C3.34634 2.05673 3.48265 1.88635 3.65985 1.78412L4.83891 1.10258C5.13197 0.932196 5.51363 1.03443 5.68401 1.32067L5.75898 1.45698C6.14746 2.1317 6.71313 2.51336 7.3197 2.51336C7.92627 2.51336 8.49194 2.1317 8.88042 1.45698L8.95539 1.32749C9.13259 1.02761 9.52106 0.925381 9.81413 1.10258L10.9932 1.7773C11.1704 1.88635 11.2999 2.04992 11.3544 2.25438C11.4089 2.45884 11.3817 2.67011 11.2794 2.84731C10.891 3.51522 10.8432 4.20357 11.1431 4.72835C11.443 5.25314 12.0632 5.55301 12.8401 5.55301C13.2763 5.55301 13.6239 5.90741 13.6239 6.33678V7.53629C13.6239 7.7342 13.5524 7.91388 13.4334 8.05111C13.3206 7.92142 13.2133 7.77177 13.1135 7.60217L13.0108 7.42771C12.591 6.70234 11.6395 6.44525 10.9026 6.8768L9.82522 7.48361ZM9.82522 7.48361C9.65483 8.27472 9.11788 8.93008 8.40116 9.26291C8.41479 8.67089 8.73092 8.09952 9.2887 7.7858L9.82522 7.48361ZM7.3267 5.41011C6.48159 5.41011 5.79324 6.09846 5.79324 6.94357C5.79324 7.78867 6.48159 8.47703 7.3267 8.47703C8.1718 8.47703 8.86015 7.78867 8.86015 6.94357C8.86015 6.09846 8.1718 5.41011 7.3267 5.41011ZM11.6302 15.3333C11.6302 16.9768 12.9922 18.3174 14.662 18.3174C16.3318 18.3174 17.6938 16.9768 17.6938 15.3333C17.6938 13.6897 16.3318 12.3492 14.662 12.3492C12.9922 12.3492 11.6302 13.6897 11.6302 15.3333Z"/>
</mask>
<path fill-rule="evenodd" clip-rule="evenodd" d="M9.51425 13.8882C9.37113 13.8882 9.228 13.8678 9.08488 13.8337C8.66233 13.7178 8.30793 13.452 8.08302 13.0772L8.00124 12.9409C7.94664 12.8465 7.88929 12.7649 7.82992 12.6962C8.21962 12.5962 8.52023 12.4115 8.719 12.1638C8.77814 12.2446 8.83433 12.331 8.88724 12.4229L8.9622 12.5524C9.04399 12.6955 9.1803 12.7977 9.34387 12.8386C9.50743 12.8795 9.671 12.8591 9.80731 12.7773L10.9864 12.0958C11.1636 11.9935 11.2999 11.8232 11.3544 11.6187C11.4089 11.4142 11.3817 11.203 11.2794 11.0258C10.891 10.3578 10.8432 9.66949 11.1431 9.14471C11.443 8.61993 12.0632 8.32005 12.8401 8.32005C13.0784 8.32005 13.2902 8.21633 13.4334 8.05111C13.6995 8.35693 13.9968 8.5518 14.3025 8.63572C13.9724 9.07277 13.4486 9.35599 12.8606 9.35599C12.4585 9.35599 12.1654 9.47185 12.0496 9.66949C11.9337 9.86714 11.9814 10.1806 12.1859 10.5282C12.4244 10.944 12.4926 11.4347 12.3631 11.8981C12.2404 12.3684 11.9405 12.7569 11.518 12.9954L10.3389 13.6701C10.0799 13.8132 9.8005 13.8882 9.51425 13.8882ZM5.46903 13.8572C5.07115 13.9392 4.667 13.8709 4.32094 13.6633L3.1487 12.9886C2.73296 12.75 2.43309 12.3616 2.30359 11.8913C2.18092 11.421 2.24225 10.9372 2.48079 10.5214C2.67844 10.1738 2.73296 9.86032 2.6171 9.66268C2.50124 9.46503 2.20818 9.34917 1.80607 9.34917C0.811028 9.34917 0 8.53814 0 7.5431V6.3436C0 5.34855 0.811028 4.53753 1.80607 4.53753C2.20818 4.53753 2.50124 4.42166 2.6171 4.22402C2.73296 4.02637 2.68525 3.71287 2.48079 3.36528C2.24225 2.94954 2.18092 2.45884 2.30359 1.99539C2.42627 1.52513 2.72615 1.13666 3.1487 0.89812L4.32776 0.223398C5.09789 -0.233231 6.11338 0.0325682 6.57683 0.816335L6.65861 0.952643C7.06072 1.64781 7.61276 1.64781 8.01487 0.952643L8.08984 0.823151C8.55328 0.0325682 9.56877 -0.233231 10.3457 0.230214L11.518 0.904935C11.9337 1.14347 12.2336 1.53195 12.3631 2.00221C12.4857 2.47247 12.4244 2.95636 12.1859 3.3721C11.9882 3.71968 11.9337 4.03319 12.0496 4.23083C12.1654 4.42848 12.4585 4.54434 12.8606 4.54434C13.8556 4.54434 14.6667 5.35537 14.6667 6.35041V7.54992C14.6667 7.95695 14.531 8.33319 14.3025 8.63572C14.9688 8.81871 15.6747 8.47419 16.1826 7.60217L16.2852 7.42771C16.7236 6.70234 17.6752 6.44525 18.4121 6.8768L20.026 7.7858C20.8749 8.26326 21.1641 9.32836 20.679 10.1639C19.8394 11.6055 20.5297 12.7807 22.2182 12.7807C23.1977 12.7807 23.9907 13.5704 24 14.5253V16.1413C24 17.1054 23.1977 17.8858 22.2276 17.8858C20.5391 17.8858 19.8488 19.0611 20.6977 20.5027C21.1828 21.329 20.8936 22.4033 20.0447 22.8808L18.4308 23.7898C17.6938 24.2213 16.7423 23.9642 16.3039 23.2389L16.2012 23.0644C15.3523 21.6229 13.9717 21.6229 13.1321 23.0644L13.0295 23.2389C12.591 23.9642 11.6395 24.2213 10.9026 23.7898L9.2887 22.8808C8.43979 22.4033 8.1506 21.3382 8.63569 20.5027C9.4846 19.0611 8.79428 17.8858 7.10579 17.8858C6.12628 17.8858 5.33334 17.0962 5.33334 16.1413V14.5253C5.33334 14.2886 5.3817 14.063 5.46903 13.8572ZM5.46903 13.8572C5.50213 13.8504 5.53518 13.8426 5.56815 13.8337C5.99071 13.7246 6.34511 13.452 6.57001 13.0704L6.64498 12.9409C6.66918 12.899 6.69392 12.8597 6.71914 12.8229C6.84381 12.7953 6.97323 12.7807 7.10579 12.7807C7.37285 12.7807 7.61494 12.7513 7.82992 12.6962C7.47831 12.289 7.05609 12.3312 6.71914 12.8229C6.15537 12.9478 5.6888 13.3395 5.46903 13.8572ZM9.82522 7.48361C9.86271 7.30951 9.88246 7.12883 9.88246 6.94357C9.88246 5.53279 8.73748 4.38781 7.3267 4.38781C5.91592 4.38781 4.77094 5.53279 4.77094 6.94357C4.77094 8.35435 5.91592 9.49933 7.3267 9.49933C7.71041 9.49933 8.07446 9.41463 8.40116 9.26291C8.39404 9.57191 8.46933 9.88654 8.63569 10.1731C9.10694 10.9682 9.10386 11.6841 8.719 12.1638C8.34392 11.6513 7.85048 11.3665 7.32652 11.3665C6.71995 11.3665 6.15427 11.755 5.7658 12.4229L5.69083 12.5524C5.60223 12.6955 5.46592 12.8046 5.30235 12.8455C5.1456 12.8863 4.97522 12.8659 4.83209 12.7773L3.65304 12.1026C3.47584 11.9935 3.34634 11.83 3.29182 11.6255C3.2373 11.421 3.26456 11.2098 3.36679 11.0326C3.75527 10.3647 3.80297 9.67631 3.5031 9.15153C3.20322 8.62674 2.58302 8.32687 1.80607 8.32687C1.36989 8.32687 1.0223 7.97247 1.0223 7.5431V6.3436C1.0223 5.90741 1.36989 5.55983 1.80607 5.55983C2.58302 5.55983 3.20322 5.25995 3.5031 4.73517C3.80297 4.21039 3.75527 3.52204 3.36679 2.85413C3.26456 2.67693 3.2373 2.46565 3.29182 2.26119C3.34634 2.05673 3.48265 1.88635 3.65985 1.78412L4.83891 1.10258C5.13197 0.932196 5.51363 1.03443 5.68401 1.32067L5.75898 1.45698C6.14746 2.1317 6.71313 2.51336 7.3197 2.51336C7.92627 2.51336 8.49194 2.1317 8.88042 1.45698L8.95539 1.32749C9.13259 1.02761 9.52106 0.925381 9.81413 1.10258L10.9932 1.7773C11.1704 1.88635 11.2999 2.04992 11.3544 2.25438C11.4089 2.45884 11.3817 2.67011 11.2794 2.84731C10.891 3.51522 10.8432 4.20357 11.1431 4.72835C11.443 5.25314 12.0632 5.55301 12.8401 5.55301C13.2763 5.55301 13.6239 5.90741 13.6239 6.33678V7.53629C13.6239 7.7342 13.5524 7.91388 13.4334 8.05111C13.3206 7.92142 13.2133 7.77177 13.1135 7.60217L13.0108 7.42771C12.591 6.70234 11.6395 6.44525 10.9026 6.8768L9.82522 7.48361ZM9.82522 7.48361C9.65483 8.27472 9.11788 8.93008 8.40116 9.26291C8.41479 8.67089 8.73092 8.09952 9.2887 7.7858L9.82522 7.48361ZM7.3267 5.41011C6.48159 5.41011 5.79324 6.09846 5.79324 6.94357C5.79324 7.78867 6.48159 8.47703 7.3267 8.47703C8.1718 8.47703 8.86015 7.78867 8.86015 6.94357C8.86015 6.09846 8.1718 5.41011 7.3267 5.41011ZM11.6302 15.3333C11.6302 16.9768 12.9922 18.3174 14.662 18.3174C16.3318 18.3174 17.6938 16.9768 17.6938 15.3333C17.6938 13.6897 16.3318 12.3492 14.662 12.3492C12.9922 12.3492 11.6302 13.6897 11.6302 15.3333Z" fill="#132D46"/>
<path d="M9.08488 13.8337L9.0289 14.0379L9.03588 14.0395L9.08488 13.8337ZM8.08302 13.0772L8.26445 12.9683L8.26445 12.9683L8.08302 13.0772ZM8.00124 12.9409L7.81807 13.0468L7.81981 13.0497L8.00124 12.9409ZM8.88724 12.4229L8.70387 12.5285L8.70413 12.5289L8.88724 12.4229ZM8.9622 12.5524L9.14591 12.4474L9.14531 12.4464L8.9622 12.5524ZM9.80731 12.7773L9.70141 12.5941L9.69845 12.5959L9.80731 12.7773ZM10.9864 12.0958L10.8806 11.9125L10.8805 11.9126L10.9864 12.0958ZM11.3544 11.6187L11.15 11.5642V11.5642L11.3544 11.6187ZM11.2794 11.0258L11.4627 10.92L11.4623 10.9194L11.2794 11.0258ZM12.1859 10.5282L12.3694 10.4229L12.3682 10.421L12.1859 10.5282ZM12.3631 11.8981L12.1593 11.8412L12.1583 11.8447L12.3631 11.8981ZM11.518 12.9954L11.414 12.8111L11.4129 12.8118L11.518 12.9954ZM10.3389 13.6701L10.4413 13.8553L10.444 13.8538L10.3389 13.6701ZM4.32094 13.6633L4.42982 13.4818L4.42649 13.4799L4.32094 13.6633ZM3.1487 12.9886L3.25425 12.8052L3.254 12.8051L3.1487 12.9886ZM2.30359 11.8913L2.09885 11.9447L2.0996 11.9475L2.30359 11.8913ZM2.48079 10.5214L2.66431 10.6267L2.66472 10.626L2.48079 10.5214ZM2.48079 3.36528L2.29726 3.47059L2.29842 3.47256L2.48079 3.36528ZM2.30359 1.99539L2.50813 2.04954L2.50832 2.0488L2.30359 1.99539ZM3.1487 0.89812L3.25271 1.08237L3.25379 1.08176L3.1487 0.89812ZM4.32776 0.223398L4.43286 0.407059L4.43567 0.405394L4.32776 0.223398ZM6.57683 0.816335L6.3947 0.924028L6.3954 0.925193L6.57683 0.816335ZM6.65861 0.952643L6.84178 0.84669L6.84004 0.843785L6.65861 0.952643ZM8.01487 0.952643L7.83176 0.846633L7.83172 0.846703L8.01487 0.952643ZM8.08984 0.823151L7.9073 0.716148L7.90673 0.717141L8.08984 0.823151ZM10.3457 0.230214L10.2373 0.411946L10.2402 0.413589L10.3457 0.230214ZM11.518 0.904935L11.4124 1.08831L11.4127 1.08845L11.518 0.904935ZM12.3631 2.00221L12.5678 1.9488L12.5671 1.94604L12.3631 2.00221ZM12.1859 3.3721L12.0024 3.2668L12.0019 3.26751L12.1859 3.3721ZM16.1826 7.60217L16.0002 7.4949L15.9998 7.49568L16.1826 7.60217ZM16.2852 7.42771L16.1041 7.31825L16.1028 7.32044L16.2852 7.42771ZM18.4121 6.8768L18.3052 7.05941L18.3083 7.06115L18.4121 6.8768ZM20.026 7.7858L19.9222 7.97015L19.9223 7.97022L20.026 7.7858ZM20.679 10.1639L20.8618 10.2704L20.862 10.2701L20.679 10.1639ZM24 14.5253H24.2116L24.2116 14.5232L24 14.5253ZM20.6977 20.5027L20.8801 20.3956L20.88 20.3953L20.6977 20.5027ZM20.0447 22.8808L19.9409 22.6964L19.9408 22.6964L20.0447 22.8808ZM18.4308 23.7898L18.3269 23.6054L18.3239 23.6072L18.4308 23.7898ZM16.3039 23.2389L16.1215 23.3462L16.1228 23.3483L16.3039 23.2389ZM16.2012 23.0644L16.3836 22.9571L16.3836 22.9571L16.2012 23.0644ZM13.1321 23.0644L13.3145 23.1717L13.3149 23.1709L13.1321 23.0644ZM13.0295 23.2389L13.2106 23.3483L13.2119 23.3461L13.0295 23.2389ZM10.9026 23.7898L11.0095 23.6072L11.0064 23.6054L10.9026 23.7898ZM9.2887 22.8808L9.39253 22.6964L9.39242 22.6964L9.2887 22.8808ZM8.63569 20.5027L8.45337 20.3953L8.45271 20.3964L8.63569 20.5027ZM5.56815 13.8337L5.51528 13.6288L5.51303 13.6294L5.56815 13.8337ZM6.57001 13.0704L6.7523 13.1778L6.75312 13.1764L6.57001 13.0704ZM6.64498 12.9409L6.82809 13.0469L6.82813 13.0468L6.64498 12.9409ZM8.63569 10.1731L8.45271 10.2793L8.45368 10.281L8.63569 10.1731ZM5.7658 12.4229L5.5829 12.3165L5.58269 12.3169L5.7658 12.4229ZM5.69083 12.5524L5.87081 12.6638L5.87394 12.6584L5.69083 12.5524ZM5.30235 12.8455L5.25103 12.6402L5.24895 12.6407L5.30235 12.8455ZM4.83209 12.7773L4.94353 12.5973L4.93718 12.5937L4.83209 12.7773ZM3.65304 12.1026L3.54209 12.2829L3.54795 12.2862L3.65304 12.1026ZM3.29182 11.6255L3.08738 11.68L3.29182 11.6255ZM3.36679 11.0326L3.18389 10.9262L3.18352 10.9268L3.36679 11.0326ZM3.36679 2.85413L3.18352 2.95986L3.1839 2.96051L3.36679 2.85413ZM3.29182 2.26119L3.49626 2.31571V2.31571L3.29182 2.26119ZM3.65985 1.78412L3.76558 1.96739L3.76574 1.9673L3.65985 1.78412ZM4.83891 1.10258L4.94479 1.28576L4.94525 1.28549L4.83891 1.10258ZM5.68401 1.32067L5.86951 1.21865L5.86582 1.21245L5.68401 1.32067ZM5.75898 1.45698L5.57356 1.55896L5.57562 1.56255L5.75898 1.45698ZM8.88042 1.45698L8.69731 1.35097L8.69706 1.35141L8.88042 1.45698ZM8.95539 1.32749L8.77323 1.21985L8.77228 1.22148L8.95539 1.32749ZM9.81413 1.10258L9.70462 1.28369L9.70904 1.28622L9.81413 1.10258ZM10.9932 1.7773L11.1041 1.59702L11.0983 1.59366L10.9932 1.7773ZM11.3544 2.25438L11.15 2.30889V2.30889L11.3544 2.25438ZM11.2794 2.84731L11.4623 2.95369L11.4627 2.95305L11.2794 2.84731ZM13.1135 7.60217L12.9311 7.70944L12.9311 7.70953L13.1135 7.60217ZM13.0108 7.42771L12.8277 7.53369L12.8285 7.53498L13.0108 7.42771ZM10.9026 6.8768L11.0064 7.06118L11.0095 7.05938L10.9026 6.8768ZM9.2887 7.7858L9.39242 7.97022L9.39253 7.97015L9.2887 7.7858ZM9.03588 14.0395C9.19116 14.0765 9.35105 14.0998 9.51425 14.0998V13.6766C9.39121 13.6766 9.26485 13.659 9.13389 13.6279L9.03588 14.0395ZM7.90159 13.186C8.155 13.6084 8.55477 13.9077 9.02893 14.0377L9.14083 13.6296C8.76989 13.5279 8.46086 13.2957 8.26445 12.9683L7.90159 13.186ZM7.81981 13.0497L7.90159 13.186L8.26445 12.9683L8.18267 12.832L7.81981 13.0497ZM7.66978 12.8344C7.71923 12.8917 7.7691 12.9621 7.81809 13.0468L8.18439 12.8349C8.12419 12.7309 8.05934 12.6381 7.99005 12.5579L7.66978 12.8344ZM8.55398 12.0313C8.38926 12.2366 8.13186 12.4002 7.77732 12.4912L7.88251 12.9011C8.30737 12.7921 8.6512 12.5863 8.88402 12.2962L8.55398 12.0313ZM9.0706 12.3173C9.014 12.219 8.95362 12.1261 8.88974 12.0388L8.54826 12.2887C8.60265 12.363 8.65465 12.443 8.70387 12.5285L9.0706 12.3173ZM9.14531 12.4464L9.07034 12.3169L8.70413 12.5289L8.7791 12.6584L9.14531 12.4464ZM9.39518 12.6334C9.28613 12.6061 9.19835 12.5392 9.14591 12.4474L8.7785 12.6574C8.88963 12.8518 9.07447 12.9894 9.29255 13.0439L9.39518 12.6334ZM9.69845 12.5959C9.61488 12.646 9.50976 12.662 9.39518 12.6334L9.29255 13.0439C9.5051 13.097 9.72713 13.0722 9.91617 12.9587L9.69845 12.5959ZM10.8805 11.9126L9.70143 12.5941L9.91319 12.9605L11.0923 12.2789L10.8805 11.9126ZM11.15 11.5642C11.1105 11.7121 11.0112 11.8372 10.8806 11.9125L11.0921 12.279C11.3159 12.1499 11.4892 11.9342 11.5588 11.6732L11.15 11.5642ZM11.0962 11.1315C11.1697 11.2589 11.1904 11.4124 11.15 11.5642L11.5588 11.6732C11.6274 11.4161 11.5937 11.147 11.4627 10.92L11.0962 11.1315ZM10.9594 9.03974C10.6118 9.64806 10.6818 10.4191 11.0965 11.1321L11.4623 10.9194C11.1001 10.2966 11.0747 9.69092 11.3268 9.24969L10.9594 9.03974ZM12.8401 8.10847C12.0129 8.10847 11.3082 8.42943 10.9594 9.03974L11.3268 9.24969C11.5778 8.81043 12.1135 8.53163 12.8401 8.53163V8.10847ZM13.2735 7.91255C13.1695 8.0326 13.0155 8.10847 12.8401 8.10847V8.53163C13.1414 8.53163 13.411 8.40007 13.5933 8.18968L13.2735 7.91255ZM14.3585 8.43169C14.1006 8.36088 13.8374 8.19306 13.593 7.91223L13.2738 8.19C13.5616 8.52081 13.8931 8.74273 14.2464 8.83975L14.3585 8.43169ZM12.8606 9.56757C13.5181 9.56757 14.1031 9.25067 14.4713 8.76324L14.1336 8.5082C13.8416 8.89487 13.3791 9.14441 12.8606 9.14441V9.56757ZM12.2321 9.7765C12.2887 9.67993 12.4789 9.56757 12.8606 9.56757V9.14441C12.4381 9.14441 12.0421 9.26377 11.867 9.56249L12.2321 9.7765ZM12.3682 10.421C12.1737 10.0902 12.1772 9.87017 12.2321 9.7765L11.867 9.56249C11.6902 9.86411 11.7891 10.2711 12.0035 10.6355L12.3682 10.421ZM12.5668 11.9551C12.7122 11.435 12.6351 10.886 12.3694 10.4229L12.0024 10.6335C12.2137 11.0019 12.273 11.4344 12.1593 11.8412L12.5668 11.9551ZM11.622 13.1796C12.0943 12.913 12.4306 12.4774 12.5678 11.9515L12.1583 11.8447C12.0502 12.2594 11.7867 12.6007 11.414 12.8111L11.622 13.1796ZM10.444 13.8538L11.6231 13.179L11.4129 12.8118L10.2338 13.4865L10.444 13.8538ZM9.51425 14.0998C9.83831 14.0998 10.1527 14.0147 10.4412 13.8553L10.2366 13.4849C10.0071 13.6117 9.76268 13.6766 9.51425 13.6766V14.0998ZM4.21208 13.8447C4.60398 14.0799 5.06226 14.157 5.51169 14.0645L5.42636 13.65C5.08003 13.7213 4.73002 13.662 4.4298 13.4819L4.21208 13.8447ZM3.04315 13.172L4.21539 13.8467L4.42649 13.4799L3.25425 12.8052L3.04315 13.172ZM2.0996 11.9475C2.24369 12.4707 2.57854 12.9054 3.0434 13.1721L3.254 12.8051C2.88738 12.5947 2.62248 12.2524 2.50758 11.8351L2.0996 11.9475ZM2.29727 10.4161C2.03041 10.8812 1.96257 11.4223 2.09886 11.9447L2.50832 11.8379C2.39926 11.4198 2.4541 10.9931 2.66431 10.6267L2.29727 10.4161ZM2.43457 9.76968C2.45977 9.81267 2.47652 9.88611 2.45768 10.0018C2.43897 10.1167 2.38719 10.258 2.29687 10.4168L2.66472 10.626C2.77204 10.4373 2.84634 10.248 2.87534 10.0698C2.90421 9.89247 2.89029 9.71033 2.79963 9.55568L2.43457 9.76968ZM1.80607 9.56075C2.1878 9.56075 2.37796 9.67311 2.43457 9.76968L2.79963 9.55568C2.62452 9.25696 2.22855 9.13759 1.80607 9.13759V9.56075ZM-0.211581 7.5431C-0.211581 8.655 0.694175 9.56075 1.80607 9.56075V9.13759C0.927882 9.13759 0.211581 8.42129 0.211581 7.5431H-0.211581ZM-0.211581 6.3436V7.5431H0.211581V6.3436H-0.211581ZM1.80607 4.32594C0.694176 4.32594 -0.211581 5.2317 -0.211581 6.3436H0.211581C0.211581 5.46541 0.927881 4.74911 1.80607 4.74911V4.32594ZM2.43457 4.11702C2.37796 4.21359 2.1878 4.32594 1.80607 4.32594V4.74911C2.22855 4.74911 2.62452 4.62974 2.79963 4.33102L2.43457 4.11702ZM2.29842 3.47256C2.49298 3.8033 2.48948 4.02335 2.43457 4.11702L2.79963 4.33102C2.97644 4.0294 2.87753 3.62243 2.66316 3.25801L2.29842 3.47256ZM2.09906 1.94125C1.96241 2.45748 2.03048 3.0056 2.29727 3.47058L2.66431 3.25998C2.45403 2.89349 2.39943 2.46019 2.50813 2.04954L2.09906 1.94125ZM3.04469 0.71387C2.57237 0.980498 2.23605 1.41611 2.09886 1.94199L2.50832 2.0488C2.61649 1.63416 2.87992 1.29282 3.25271 1.08237L3.04469 0.71387ZM4.22267 0.03976L3.04361 0.714481L3.25379 1.08176L4.43284 0.407037L4.22267 0.03976ZM6.75895 0.708644C6.23729 -0.173578 5.09278 -0.476176 4.21985 0.0414032L4.43567 0.405394C5.103 0.00971439 5.98948 0.238715 6.3947 0.924026L6.75895 0.708644ZM6.84004 0.843785L6.75826 0.707477L6.3954 0.925193L6.47718 1.0615L6.84004 0.843785ZM7.83172 0.846703C7.64582 1.16809 7.46339 1.26244 7.33674 1.26244C7.21009 1.26244 7.02766 1.16809 6.84176 0.846703L6.47546 1.05858C6.69167 1.43237 6.98631 1.6856 7.33674 1.6856C7.68717 1.6856 7.98181 1.43237 8.19802 1.05858L7.83172 0.846703ZM7.90673 0.717141L7.83176 0.846633L8.19798 1.05865L8.27295 0.92916L7.90673 0.717141ZM10.4541 0.0485038C9.57443 -0.476217 8.42908 -0.173937 7.90731 0.71615L8.27237 0.930151C8.67748 0.239073 9.56311 0.00975483 10.2373 0.411924L10.4541 0.0485038ZM11.6235 0.72156L10.4513 0.0468389L10.2402 0.413589L11.4124 1.08831L11.6235 0.72156ZM12.5671 1.94604C12.423 1.42278 12.0881 0.988138 11.6233 0.721417L11.4127 1.08845C11.7793 1.29881 12.0442 1.64112 12.1591 2.05838L12.5671 1.94604ZM12.3694 3.47739C12.6363 3.01229 12.7041 2.47125 12.5678 1.9488L12.1583 2.05562C12.2674 2.47369 12.2126 2.90043 12.0024 3.2668L12.3694 3.47739ZM12.2321 4.12383C12.2069 4.08084 12.1901 4.0074 12.209 3.89169C12.2277 3.77677 12.2795 3.63552 12.3698 3.47668L12.0019 3.26751C11.8946 3.45626 11.8203 3.64555 11.7913 3.8237C11.7625 4.00104 11.7764 4.18318 11.867 4.33783L12.2321 4.12383ZM12.8606 4.33276C12.4789 4.33276 12.2887 4.2204 12.2321 4.12383L11.867 4.33783C12.0421 4.63656 12.4381 4.75592 12.8606 4.75592V4.33276ZM14.8782 6.35041C14.8782 5.23852 13.9725 4.33276 12.8606 4.33276V4.75592C13.7388 4.75592 14.4551 5.47222 14.4551 6.35041H14.8782ZM14.8782 7.54992V6.35041H14.4551V7.54992H14.8782ZM14.4713 8.76324C14.7264 8.42543 14.8782 8.00475 14.8782 7.54992H14.4551C14.4551 7.90915 14.3355 8.24095 14.1336 8.5082L14.4713 8.76324ZM15.9998 7.49568C15.5207 8.31815 14.8997 8.58032 14.3585 8.43169L14.2464 8.83975C15.0379 9.0571 15.8287 8.63023 16.3654 7.70865L15.9998 7.49568ZM16.1028 7.32044L16.0002 7.4949L16.365 7.70944L16.4676 7.53498L16.1028 7.32044ZM18.5191 6.69422C17.6795 6.20261 16.6008 6.4966 16.1041 7.31826L16.4663 7.53716C16.8465 6.90809 17.6708 6.68789 18.3052 7.05938L18.5191 6.69422ZM20.1298 7.60145L18.516 6.69245L18.3083 7.06115L19.9222 7.97015L20.1298 7.60145ZM20.862 10.2701C21.4065 9.33225 21.0812 8.13651 20.1297 7.60139L19.9223 7.97022C20.6687 8.39001 20.9217 9.32446 20.496 10.0577L20.862 10.2701ZM22.2182 12.5692C21.4178 12.5692 20.9101 12.292 20.683 11.9057C20.4565 11.5205 20.465 10.9518 20.8618 10.2704L20.4962 10.0574C20.0534 10.8176 19.9873 11.5573 20.3182 12.1201C20.6484 12.6818 21.3302 12.9923 22.2182 12.9923V12.5692ZM24.2116 14.5232C24.2011 13.4511 23.3126 12.5692 22.2182 12.5692V12.9923C23.0829 12.9923 23.7803 13.6897 23.7884 14.5274L24.2116 14.5232ZM24.2116 16.1413V14.5253H23.7884V16.1413H24.2116ZM22.2276 18.0974C23.3107 18.0974 24.2116 17.2261 24.2116 16.1413H23.7884C23.7884 16.9847 23.0848 17.6743 22.2276 17.6743V18.0974ZM20.88 20.3953C20.4786 19.7137 20.4685 19.1452 20.6937 18.7606C20.9196 18.3746 21.4269 18.0974 22.2276 18.0974V17.6743C21.3397 17.6743 20.6576 17.9847 20.3285 18.5468C19.9987 19.1101 20.0678 19.8501 20.5153 20.61L20.88 20.3953ZM20.1484 23.0652C21.0996 22.5302 21.4257 21.3249 20.8801 20.3956L20.5152 20.6098C20.9398 21.3332 20.6876 22.2764 19.9409 22.6964L20.1484 23.0652ZM18.5346 23.9741L20.1485 23.0651L19.9408 22.6964L18.327 23.6054L18.5346 23.9741ZM16.1228 23.3483C16.6194 24.17 17.6982 24.464 18.5377 23.9724L18.3239 23.6072C17.6895 23.9787 16.8652 23.7585 16.4849 23.1294L16.1228 23.3483ZM16.0189 23.1717L16.1215 23.3461L16.4862 23.1316L16.3836 22.9571L16.0189 23.1717ZM13.3149 23.1709C13.7114 22.4902 14.2073 22.1948 14.6632 22.1948C15.1194 22.1948 15.6178 22.4906 16.0189 23.1718L16.3836 22.9571C15.9358 22.1967 15.3194 21.7717 14.6632 21.7717C14.0066 21.7717 13.3924 22.1971 12.9493 22.9579L13.3149 23.1709ZM13.2119 23.3461L13.3145 23.1717L12.9497 22.9571L12.8471 23.1316L13.2119 23.3461ZM10.7956 23.9724C11.6352 24.464 12.7139 24.17 13.2106 23.3483L12.8484 23.1294C12.4682 23.7585 11.6439 23.9787 11.0095 23.6072L10.7956 23.9724ZM9.18486 23.0651L10.7987 23.9741L11.0064 23.6054L9.39253 22.6964L9.18486 23.0651ZM8.45271 20.3964C7.90821 21.3343 8.23354 22.5301 9.18498 23.0652L9.39242 22.6964C8.64604 22.2766 8.39299 21.3421 8.81867 20.6089L8.45271 20.3964ZM7.10579 18.0974C7.90641 18.0974 8.41371 18.3746 8.63968 18.7606C8.86489 19.1452 8.85476 19.7137 8.45338 20.3953L8.81801 20.61C9.26554 19.8501 9.33469 19.1101 9.00485 18.5468C8.67577 17.9847 7.99366 17.6743 7.10579 17.6743V18.0974ZM5.12176 16.1413C5.12176 17.2155 6.01187 18.0974 7.10579 18.0974V17.6743C6.24069 17.6743 5.54492 16.9769 5.54492 16.1413H5.12176ZM5.12176 14.5253V16.1413H5.54492V14.5253H5.12176ZM5.27427 13.7746C5.17611 14.0058 5.12176 14.2595 5.12176 14.5253H5.54492C5.54492 14.3177 5.58729 14.1201 5.66379 13.9399L5.27427 13.7746ZM5.51169 14.0645C5.54899 14.0568 5.58619 14.048 5.62328 14.038L5.51303 13.6294C5.48417 13.6372 5.45527 13.6441 5.42636 13.65L5.51169 14.0645ZM5.62102 14.0386C6.09995 13.915 6.49996 13.606 6.7523 13.1778L6.38773 12.9629C6.19025 13.2981 5.88146 13.5343 5.51528 13.6288L5.62102 14.0386ZM6.75312 13.1764L6.82809 13.0469L6.46187 12.8349L6.3869 12.9644L6.75312 13.1764ZM6.82813 13.0468C6.84981 13.0093 6.87169 12.9746 6.89367 12.9425L6.54461 12.7033C6.51615 12.7448 6.48855 12.7887 6.46183 12.8349L6.82813 13.0468ZM7.10579 12.5692C6.95769 12.5692 6.81292 12.5854 6.67338 12.6164L6.7649 13.0295C6.87469 13.0052 6.98877 12.9923 7.10579 12.9923V12.5692ZM7.77732 12.4912C7.58171 12.5414 7.35751 12.5692 7.10579 12.5692V12.9923C7.38818 12.9923 7.64817 12.9612 7.88251 12.9011L7.77732 12.4912ZM6.89367 12.9425C7.04365 12.7237 7.18569 12.6445 7.29222 12.6328C7.39223 12.6218 7.52249 12.6639 7.66978 12.8344L7.99005 12.5579C7.78574 12.3213 7.52909 12.1809 7.24585 12.2122C6.96913 12.2427 6.73157 12.4305 6.54461 12.7033L6.89367 12.9425ZM6.67338 12.6164C6.043 12.756 5.52082 13.1937 5.27427 13.7746L5.66379 13.9399C5.85677 13.4853 6.26775 13.1396 6.7649 13.0295L6.67338 12.6164ZM10.0321 7.52816C10.0727 7.33951 10.094 7.1439 10.094 6.94357H9.67088C9.67088 7.11376 9.65274 7.2795 9.61838 7.43906L10.0321 7.52816ZM10.094 6.94357C10.094 5.41593 8.85433 4.17622 7.3267 4.17622V4.59939C8.62062 4.59939 9.67088 5.64964 9.67088 6.94357H10.094ZM7.3267 4.17622C5.79906 4.17622 4.55935 5.41593 4.55935 6.94357H4.98252C4.98252 5.64964 6.03277 4.59939 7.3267 4.59939V4.17622ZM4.55935 6.94357C4.55935 8.4712 5.79906 9.71091 7.3267 9.71091V9.28775C6.03277 9.28775 4.98252 8.2375 4.98252 6.94357H4.55935ZM7.3267 9.71091C7.74184 9.71091 8.13625 9.61922 8.49027 9.45481L8.31204 9.07102C8.01267 9.21004 7.67898 9.28775 7.3267 9.28775V9.71091ZM8.18963 9.25804C8.18165 9.6049 8.26624 9.95813 8.45271 10.2793L8.81867 10.0669C8.67242 9.81495 8.60644 9.53893 8.61268 9.26778L8.18963 9.25804ZM8.45368 10.281C8.89877 11.032 8.86374 11.6453 8.55398 12.0313L8.88402 12.2962C9.34397 11.723 9.31512 10.9045 8.81771 10.0652L8.45368 10.281ZM8.88974 12.0388C8.4849 11.4857 7.93337 11.1549 7.32652 11.1549V11.5781C7.76758 11.5781 8.20295 11.8169 8.54826 12.2887L8.88974 12.0388ZM7.32652 11.1549C6.62185 11.1549 5.99623 11.6059 5.5829 12.3165L5.94869 12.5293C6.31231 11.9041 6.81805 11.5781 7.32652 11.5781V11.1549ZM5.58269 12.3169L5.50772 12.4464L5.87394 12.6584L5.94891 12.5289L5.58269 12.3169ZM5.51093 12.441C5.44753 12.5434 5.35453 12.6143 5.25104 12.6402L5.35367 13.0507C5.57731 12.9948 5.75693 12.8476 5.87073 12.6638L5.51093 12.441ZM5.24895 12.6407C5.14455 12.668 5.03425 12.6536 4.94346 12.5974L4.72073 12.9572C4.91619 13.0782 5.14665 13.1047 5.35576 13.0502L5.24895 12.6407ZM4.93718 12.5937L3.75812 11.9189L3.54795 12.2862L4.72701 12.9609L4.93718 12.5937ZM3.76392 11.9224C3.62922 11.8395 3.53577 11.7192 3.49626 11.571L3.08738 11.68C3.15692 11.9408 3.32245 12.1476 3.54215 12.2828L3.76392 11.9224ZM3.49626 11.571C3.45578 11.4192 3.47656 11.2657 3.55006 11.1383L3.18352 10.9268C3.05256 11.1538 3.01882 11.4229 3.08738 11.68L3.49626 11.571ZM3.54968 11.1389C3.9644 10.4259 4.03442 9.65488 3.6868 9.04655L3.31939 9.2565C3.57153 9.69774 3.54613 10.3034 3.1839 10.9262L3.54968 11.1389ZM3.6868 9.04655C3.33805 8.43624 2.63329 8.11529 1.80607 8.11529V8.53845C2.53275 8.53845 3.06839 8.81725 3.31939 9.2565L3.6868 9.04655ZM1.80607 8.11529C1.48794 8.11529 1.23389 7.85682 1.23389 7.5431H0.810724C0.810724 8.08812 1.25184 8.53845 1.80607 8.53845V8.11529ZM1.23389 7.5431V6.3436H0.810724V7.5431H1.23389ZM1.23389 6.3436C1.23389 6.02427 1.48674 5.77141 1.80607 5.77141V5.34825C1.25304 5.34825 0.810724 5.79056 0.810724 6.3436H1.23389ZM1.80607 5.77141C2.63329 5.77141 3.33805 5.45045 3.6868 4.84014L3.31939 4.6302C3.06839 5.06945 2.53275 5.34825 1.80607 5.34825V5.77141ZM3.6868 4.84014C4.03442 4.23182 3.9644 3.46077 3.54968 2.74775L3.1839 2.96051C3.54613 3.5833 3.57153 4.18896 3.31939 4.6302L3.6868 4.84014ZM3.55006 2.7484C3.47656 2.621 3.45578 2.46751 3.49626 2.31571L3.08738 2.20668C3.01882 2.4638 3.05256 2.73287 3.18352 2.95986L3.55006 2.7484ZM3.49626 2.31571C3.53569 2.16783 3.63503 2.04271 3.76558 1.96739L3.55412 1.60085C3.33028 1.72999 3.157 1.94563 3.08738 2.20668L3.49626 2.31571ZM3.76574 1.9673L4.94479 1.28576L4.73302 0.9194L3.55397 1.60094L3.76574 1.9673ZM4.94525 1.28549C5.13742 1.17377 5.39079 1.24172 5.5022 1.42889L5.86582 1.21245C5.63647 0.827132 5.12652 0.690622 4.73256 0.919667L4.94525 1.28549ZM5.49862 1.42264L5.57359 1.55894L5.94437 1.35501L5.86941 1.21871L5.49862 1.42264ZM5.57562 1.56255C5.98972 2.28177 6.61592 2.72494 7.3197 2.72494V2.30178C6.81035 2.30178 6.3052 1.98163 5.94234 1.35141L5.57562 1.56255ZM7.3197 2.72494C8.02349 2.72494 8.64968 2.28177 9.06378 1.56255L8.69706 1.35141C8.33421 1.98163 7.82905 2.30178 7.3197 2.30178V2.72494ZM9.06353 1.56299L9.1385 1.4335L8.77228 1.22148L8.69731 1.35097L9.06353 1.56299ZM9.13755 1.43512C9.2569 1.23314 9.51568 1.16937 9.70465 1.28364L9.9236 0.921524C9.52645 0.681387 9.00828 0.822082 8.77323 1.21985L9.13755 1.43512ZM9.70904 1.28622L10.8881 1.96094L11.0983 1.59366L9.91921 0.918942L9.70904 1.28622ZM10.8823 1.9575C11.017 2.04039 11.1104 2.16072 11.15 2.30889L11.5588 2.19986C11.4893 1.93911 11.3238 1.7323 11.1041 1.59711L10.8823 1.9575ZM11.15 2.30889C11.1904 2.46069 11.1697 2.61418 11.0962 2.74158L11.4627 2.95305C11.5937 2.72605 11.6274 2.45698 11.5588 2.19986L11.15 2.30889ZM11.0965 2.74094C10.6818 3.45395 10.6118 4.225 10.9594 4.83333L11.3268 4.62338C11.0747 4.18214 11.1001 3.57649 11.4623 2.95369L11.0965 2.74094ZM10.9594 4.83333C11.3082 5.44364 12.0129 5.7646 12.8401 5.7646V5.34143C12.1135 5.34143 11.5778 5.06264 11.3268 4.62338L10.9594 4.83333ZM12.8401 5.7646C13.1583 5.7646 13.4123 6.02307 13.4123 6.33678H13.8355C13.8355 5.79176 13.3944 5.34143 12.8401 5.34143V5.7646ZM13.4123 6.33678V7.53629H13.8355V6.33678H13.4123ZM13.4123 7.53629C13.4123 7.68217 13.3599 7.81291 13.2735 7.91255L13.5933 8.18968C13.7448 8.01484 13.8355 7.78624 13.8355 7.53629H13.4123ZM13.593 7.91223C13.4895 7.79322 13.3897 7.6543 13.2958 7.4948L12.9311 7.70953C13.037 7.88925 13.1517 8.04962 13.2738 8.19L13.593 7.91223ZM13.2958 7.49489L13.1932 7.32044L12.8285 7.53498L12.9311 7.70944L13.2958 7.49489ZM13.194 7.32173C12.7154 6.49485 11.6338 6.20342 10.7956 6.69422L11.0095 7.05938C11.6452 6.68709 12.4667 6.90984 12.8277 7.53369L13.194 7.32173ZM10.7987 6.69245L9.72138 7.29926L9.92905 7.66796L11.0064 7.06115L10.7987 6.69245ZM8.49027 9.45481C9.26603 9.09456 9.84743 8.38534 10.0321 7.52816L9.61838 7.43906C9.46222 8.16409 8.96973 8.76559 8.31204 9.07102L8.49027 9.45481ZM9.18498 7.60139C8.55942 7.95322 8.20491 8.59445 8.18963 9.25804L8.61268 9.26778C8.62467 8.74734 8.90241 8.24581 9.39242 7.97022L9.18498 7.60139ZM9.72138 7.29926L9.18486 7.60145L9.39253 7.97015L9.92905 7.66796L9.72138 7.29926ZM6.00482 6.94357C6.00482 6.21532 6.59844 5.62169 7.3267 5.62169V5.19853C6.36474 5.19853 5.58166 5.98161 5.58166 6.94357H6.00482ZM7.3267 8.26544C6.59844 8.26544 6.00482 7.67182 6.00482 6.94357H5.58166C5.58166 7.90553 6.36474 8.68861 7.3267 8.68861V8.26544ZM8.64857 6.94357C8.64857 7.67182 8.05495 8.26544 7.3267 8.26544V8.68861C8.28866 8.68861 9.07174 7.90553 9.07174 6.94357H8.64857ZM7.3267 5.62169C8.05495 5.62169 8.64857 6.21532 8.64857 6.94357H9.07174C9.07174 5.98161 8.28866 5.19853 7.3267 5.19853V5.62169ZM14.662 18.1058C13.1059 18.1058 11.8418 16.8568 11.8418 15.3333H11.4186C11.4186 17.0968 12.8785 18.529 14.662 18.529V18.1058ZM17.4823 15.3333C17.4823 16.8568 16.2182 18.1058 14.662 18.1058V18.529C16.4455 18.529 17.9054 17.0968 17.9054 15.3333H17.4823ZM14.662 12.5608C16.2182 12.5608 17.4823 13.8097 17.4823 15.3333H17.9054C17.9054 13.5697 16.4455 12.1376 14.662 12.1376V12.5608ZM11.8418 15.3333C11.8418 13.8097 13.1059 12.5608 14.662 12.5608V12.1376C12.8785 12.1376 11.4186 13.5697 11.4186 15.3333H11.8418Z" fill="#132D46" mask="url(#path-1-inside-1_4438_154)"/>
</svg>
